<svg width="224" height="229" viewBox="0 0 224 229" xmlns="http://www.w3.org/2000/svg">
    <g fill="none" fill-rule="evenodd">
        <path d="M49.011 65.53c-6.537.815-12 8.708-13.791 14.662-1.038 3.449-.063 7.727-.921 11.147-.744 2.97-2.708.114-4.853 1.54-2.208 1.47-2.958 4.275-3.308 6.705-.473 3.305.281 8.409 2.722 10.844 1.143 1.14 3.432 2.222 4.636 2.72.495.204.507 1.593.638 2.028.53 1.766.523 2.173 1.115 3.646 1.08 2.695 3.096 6.142 4.83 8.449.623.829 1.617 1.457 2.019 2.443.473 1.156-.518 4.687-.774 6.462-.436 3.054.655 5.186 1.593 8.097.679 2.106 1.62 4.195 2.566 6.184 3.017 6.343 8.134 17.68 16.997 16.528 3.889-.506 7.46-4.053 10.478-6.29 2.65-1.966 4.83-4.412 7.27-6.612 2.238-2.02 5.598-3.747 6.628-6.824.97-2.901-1.094-7.437-1.926-10.13-1.45-4.704-1.292-11.98-.973-15.57.351-3.95 4.614-4.566 7.146-7.092.913-.91 1.999-2.38 2.611-3.45 1.063-1.856 1.563-3.683 1.89-5.96.277-1.947.515-5.425-.755-7.117-.726-.964-2.052-1.393-3.235-1.447-3.105-.142-1.898-6.526-3.795-9.051-2.002-2.66-4.002-5.543-5.667-8.423-.808-1.399-1.507-2.889-2.673-4.052-2.142-2.135-4.923-3.468-7.59-4.798-6.882-3.431-15.283-5.586-22.878-4.639" fill="#FFF5F3"/>
        <path d="M33.71 92.695c.976-.593.92-1.893 1.329-3.313.894-3.122 1.636-6.853 3.068-9.766.774-1.574 1.683-2.567 2.43-4.148.05-.106 1.012-1.364 1.156-1.206.734.817.77 2.064 1.252 3.066.083.17.56 1.453.783 1.36.278-.115.172-.28.146-.438-.22-1.256-.714-2.828-.612-4.128.253-3.19 1.37-6.096 4.532-7.587 4.127-1.945 5.979 1.5 7.853 3.15 1.529 1.348 4.01 3.9 5.752 4.996 1.744 1.096 3.283 2.13 5.125 2.995 1.495.702 3.35.938 4.964 1.37 1.25.333 2.747-.06 3.923.351.762.267 1.328.963 2.028 1.333.98.516 2.029.73 2.993 1.183 1.142.537 1.656 1.98 2.063 3.032.527 1.363.761 3.025 1.154 4.297.742 2.397 2.535 3.359 3.247 5.469.365 1.09.235 2.417.478 3.568.065.296.456.888.886.683.344-.164.845-.838 1.159-1.151.722-.722 1.563-.64 2.287-1.408 1.01-1.074 2.47-5.422 2.47-5.422s1.612-6.426 1.547-8.435c-.243-7.466.722-11.87-2.118-18.716-.468-1.123-1.401-2.829-2.034-3.877-1.04-1.717-3.485-4.788-4.992-6.075-2.142-1.827-2.64-2.225-4.746-4.081-.992-.875-2.616-1.68-3.786-2.176-2.604-1.1-5.688-2.242-8.593-2.397-1.234-.067-2.609-.11-3.831-.13-1.946-.03-4.014.378-5.966.668-2.453.363-4.696 1.839-7.198 2.079-2.082.2-4.163.378-6.331.742-1.905.32-3.079.603-4.586 1.196-3.1 1.22-5.987 3.65-8.136 6.328-1.345 1.675-2.26 3.974-2.847 6.37-.597 2.43-.638 4.752-1.387 6.453-.75 1.7-1.439 4.351-1.504 5.96-.125 3.223 1.549 6.613 1.827 8.9.275 2.287.023 2.555-.873 4.565-.213.478 1.037 4.124 2.509 4.086 1.47-.038 1.6.846 2.578.254" fill="#BED7F4"/>
        <path d="M41.187 135.959c-.512 1.422-.937 3.74-1.7 5.104-2.104 3.75-4.835 4.986-8.758 6.326-1.978.676-4.543 1.492-6.609 1.856-1.64.288-3.326.646-4.97.886-2.058.3-4.57.44-6.57.967-1.726.452-2.688.497-4.44.805-.888.155-6.262.987-6.945 1.717-.56.601-.199 4.529-.184 5.205.066 3.41-.074 6.242-.025 9.984.073 5.935-.327 8.817-.094 15.035.206 5.505-.005 7.901.108 12.318.073 2.807-.462 11.865-.043 14.682.516 3.471 15.037 4.322 19.88 5.51 4.844 1.189 12.442 2.606 17.564 2.938 8.967.577 17.386-.409 26.256-1.683 9.385-1.348 18.096-2.837 25.242-4.994 7.145-2.158 22.768-1.518 22.64-3.46-.455-6.878-.276-12.24-.125-21.548.095-5.817-.217-9.904.009-14.966.136-3.043-.134-10.253-.08-13.3.05-2.907.374-4.6-.492-4.674-1.97-.166-9.965-1.977-11.96-2.582-2.815-.852-8.813-4.696-8.813-4.696s-3.21-3.143-4.32-5.264c-.443-.848-1.278-2.347-1.532-3.28-.147-.54-.092-1.136-.617-1.452-.577-.346-1.487 1.153-1.844 1.47-1.654 1.476-3.331 3.597-5.112 4.953-4.306 3.277-8.901 6.49-13.32 9.624-1.6 1.136-4.649 3.346-6.337 3.105-1.302-.184-4.166-2.252-5.327-3.564-1.174-1.326-2.774-3.063-3.814-4.503-1.53-2.12-2.47-3.642-3.858-5.852-1.003-1.598-1.534-3.098-2.604-4.64-.195-.282-.896-2.888-1.206-2.027" fill="#FFF"/>
        <path d="M59.939 158.41c-.44-.262-.887-.233-1.366-.265-.584-.038-1.238.07-1.802.228-2.434.683-4.428 3.358-5.256 5.628-.667 1.827.838 3.332 1.833 4.785.442.647 1.577 1.367 1.227 2.174-.575 1.331-1.467 4.544-2.077 7.15-1.704 7.26-2.243 15.502-2.655 22.916-.061 1.125-.03 2.514-.145 3.632-.103.998-.128 2.74-.208 3.744-.294 3.65-1.405 8.698 3.646 9.19 2.346.23 4.717.022 7.068.1.806.026 2.18.132 2.813-.556.572-.624.52-1.801.486-2.57-.118-2.638-.16-5.243-.376-7.876-.495-6.06-.065-11.19-.269-17.262-.115-3.428-.079-8.005-.305-11.121-.141-1.99-.109-2.527-.444-4.898-.1-.715-.595-1.914-.126-2.256 1.07-.78 1.866-1.819 3.197-3.05.515-.477.934-.956.735-1.572-.946-2.94-3.897-6.396-4.664-7.08-.767-.683-.66-.654-1.312-1.041" fill="#FFDBCC"/>
        <path d="M59.743 137.392c-7.166 0-14.013-2.924-18.887-8.393-2.627-2.949-4.641-6.292-6.156-10.218-1.23-3.19-1.854-6.372-1.854-9.46a.633.633 0 1 1 1.269 0c0 2.931.594 5.962 1.77 9.005 1.458 3.783 3.394 7 5.919 9.832 6.727 7.548 17.429 9.99 27.26 6.218 3.78-1.451 5.675-3.544 6.691-4.668l.204-.223c.755-.82 2.135-2.418 2.916-3.91a.634.634 0 0 1 1.125.585c-.806 1.54-2.134 3.123-3.105 4.18l-.197.216c-1.088 1.203-3.115 3.442-7.18 5.001a27.3 27.3 0 0 1-9.775 1.835" fill="#31326F"/>
        <path d="M33.419 113.47a.654.654 0 0 1-.102-.008c-2.312-.37-4.18-1.613-5.557-3.695-2.484-3.758-2.661-9.269-1.772-12.799.462-1.838 2.11-4.168 4.07-4.883 1.103-.404 2.196-.256 3.153.43a.63.63 0 0 1 .147.884.636.636 0 0 1-.885.145c-.62-.443-1.265-.534-1.979-.27-1.494.545-2.899 2.51-3.275 4.002-.823 3.27-.674 8.356 1.6 11.793 1.172 1.775 2.754 2.832 4.699 3.143a.632.632 0 0 1-.099 1.258" fill="#31326F"/>
        <path d="M33.132 103.37a.643.643 0 0 1-.283-.067c-.84-.42-1.338-.617-2.269-.617a.633.633 0 1 1 0-1.265c1.239 0 1.927.297 2.837.75a.632.632 0 0 1-.285 1.199M86.966 117.552a.632.632 0 0 1-.18-1.24c5.321-1.555 7.765-7.368 8.278-12.29.213-2.061.002-3.806-.627-5.186-.405-.887-1.31-1.394-2.429-1.355-1.068.037-2.352.618-2.81 1.835a.633.633 0 0 1-1.188-.444c.576-1.528 2.163-2.595 3.955-2.656 1.613-.056 3.011.748 3.626 2.096.724 1.587.973 3.552.736 5.84-.557 5.331-3.26 11.644-9.184 13.375a.631.631 0 0 1-.177.025" fill="#31326F"/>
        <path d="M87.66 107.87a.633.633 0 0 1-.398-1.126l.546-.444c.844-.689 1.641-1.34 2.627-1.905a.635.635 0 0 1 .867.234c.174.302.07.69-.234.863-.895.514-1.653 1.133-2.455 1.787l-.556.451a.633.633 0 0 1-.398.14M46.375 97.534c-.36 0-.7-.175-.933-.495a1.38 1.38 0 0 1-.321-.592 1.252 1.252 0 0 1 .8-1.527c.682-.241 1.375.072 1.648.75a1.35 1.35 0 0 1-.717 1.762 1.18 1.18 0 0 1-.477.102M71.257 97.867a1.38 1.38 0 0 1-.584-.131 1.17 1.17 0 0 1-.591-.578c-.22-.32-.25-.706-.076-1.027.24-.446.697-.717 1.156-.7.49.008.94.289 1.152.715.203.41.147.895-.15 1.294-.206.278-.543.427-.907.427M56.649 107.119a.63.63 0 0 1-.307-.08c-1.303-.72-3.211-3.236-2.3-5.027.162-.325.501-.511.772-.662.071-.039.14-.074.188-.11.47-.346.885-.721 1.27-1.145 1.264-1.396.964-3.898.015-5.648a.63.63 0 0 1 .254-.858.636.636 0 0 1 .86.254c1.128 2.076 1.549 5.184-.188 7.1a9.858 9.858 0 0 1-1.455 1.315c-.086.062-.202.13-.328.2-.093.051-.249.137-.294.18-.437.88.821 2.742 1.82 3.294a.632.632 0 0 1-.307 1.187M42.243 87.024a.633.633 0 0 1-.385-1.136c2.16-1.64 4.94-2.464 7.254-2.155a.633.633 0 1 1-.17 1.254c-1.993-.269-4.413.463-6.314 1.908a.637.637 0 0 1-.385.13M75.506 87.643a.631.631 0 0 1-.394-.138c-1.647-1.306-4.468-2.417-6.762-1.76a.633.633 0 1 1-.348-1.217c2.728-.775 6.008.485 7.9 1.987a.63.63 0 0 1 .1.889.63.63 0 0 1-.496.239M49.7 117.621c.252.813.856 1.848 1.36 2.498 1.286 1.66 3.843 3.462 6.42 3.494 4.233.09 7.33-2.234 8.729-6.472-.303.101-.613.21-.805.278-.292.103-.52.182-.598.201-1.414.36-3.06.757-4.72.922a34.219 34.219 0 0 1-7.276-.036c-.743-.084-1.625-.217-2.53-.57a5.291 5.291 0 0 1-.557-.301c-.008-.005-.015-.01-.024-.014zm7.927 7.259-.163-.001c-3.016-.038-5.894-2.03-7.408-3.986-.02-.026-2.029-2.64-1.706-4.339a.76.76 0 0 1 .398-.507c.42-.191.846.04 1.622.499.159.094.297.179.378.213.763.298 1.544.415 2.206.489 2.311.26 4.603.271 7.006.034 1.572-.155 3.1-.524 4.53-.888.07-.019.257-.086.492-.168 1.84-.648 2.196-.74 2.551-.417.172.156.251.42.194.647-1.353 5.361-5.03 8.424-10.1 8.424zM43.658 79.109a.636.636 0 0 1-.587-.395c-1.412-3.477-.287-8.224 1.555-11.116a.634.634 0 0 1 1.072.679c-1.627 2.555-2.688 6.914-1.45 9.961a.633.633 0 0 1-.59.87M32.77 85.046a.634.634 0 0 1-.118-1.255c2.677-.506 3.828-2.736 4.862-5.174a.636.636 0 0 1 .831-.336.632.632 0 0 1 .337.83c-1.127 2.656-2.503 5.301-5.793 5.924a.63.63 0 0 1-.119.011M31.179 90.551h-.073a.634.634 0 0 1-.622-.646c.007-.35.303-.612.648-.62 1.382.085 3.278-1.205 3.825-2.49a.638.638 0 0 1 .833-.336c.32.137.473.508.335.83-.746 1.754-3.043 3.262-4.946 3.262" fill="#31326F"/>
        <path d="M33.028 93.592a.632.632 0 0 1-.04-1.265c.384-.089 1.205-1.7 1.486-2.765a.636.636 0 0 1 .776-.45c.34.09.542.436.452.774-.009.036-1.002 3.603-2.634 3.705a.724.724 0 0 1-.04.001M73.368 79.837c-4.408 0-9.005-1.881-13.924-5.677-.577-.443-1.1-.945-1.609-1.431l-.315-.302c-.301-.284-.595-.573-.891-.862-.25-.243-.496-.486-.747-.727a24.179 24.179 0 0 1-1.065-1.122c-2.073-2.275-4.071-4.223-5.698-3.06a.635.635 0 0 1-.886-.146.632.632 0 0 1 .147-.883c2.685-1.91 5.507 1.186 7.376 3.237.375.41.712.783 1.004 1.061.254.244.507.49.758.737.29.285.58.568.874.848l.321.306c.484.462.984.94 1.507 1.343 6.525 5.034 12.394 6.533 17.945 4.578.421-.148.825-.325 1.219-.523l-.183-.003c-2.74-.063-4.984-.734-7.716-1.799a.631.631 0 0 1-.36-.82.634.634 0 0 1 .82-.359c2.606 1.014 4.731 1.655 7.285 1.713.942.017 1.67-.06 2.37-.26.115-.036.572-.263.739-.353.075-.052.149-.105.224-.159a.766.766 0 0 1 .057-.037c.002-.002.006-.003.007-.005l.002.001c.197-.112.498-.176.686-.083.21.104.346.314.353.547.01.265-.094.483-.648.807-1.407 1.002-2.805 1.954-4.432 2.527a15.624 15.624 0 0 1-5.22.906" fill="#31326F"/>
        <path d="M82.09 82.346c-2.448 0-4.971-.847-7.113-2.525a.633.633 0 1 1 .783-.995c3.579 2.802 8.333 3.014 11.564.513a.634.634 0 1 1 .778 1c-1.733 1.342-3.844 2.007-6.012 2.007M89.978 95.535a.634.634 0 0 1-.134-.014c-2.89-.622-5.747-3.41-6.502-6.345a.634.634 0 0 1 1.23-.314c.634 2.469 3.12 4.901 5.54 5.421a.633.633 0 0 1-.134 1.252M30.598 63.842a.631.631 0 0 1-.616-.782c.514-2.118 1.168-4.363 2.459-6.42 2.94-4.687 8.662-8.105 14.577-8.709a.643.643 0 0 1 .696.565.633.633 0 0 1-.566.695c-5.54.565-10.89 3.752-13.63 8.12-1.196 1.905-1.814 4.032-2.303 6.047a.634.634 0 0 1-.617.484M28.514 89.345a.632.632 0 0 1-.521-.991c1.679-2.434.835-5.543.02-8.55-.233-.86-.461-1.698-.624-2.497-.636-3.13.699-6.813 1.552-8.73a.635.635 0 0 1 1.16.513c-.637 1.432-2.054 5.075-1.468 7.966.157.774.378 1.586.603 2.417.852 3.132 1.814 6.682-.197 9.598a.637.637 0 0 1-.525.274M95.21 71.74l-.023-.001a.633.633 0 0 1-.61-.656c.132-3.543-1.21-7.313-4.106-11.527-5.166-7.521-12.684-12.558-20.108-13.475-4.113-.507-8.091-.289-11.195.615-.808.235-1.622.55-2.408.854-.816.316-1.656.641-2.52.893a.632.632 0 1 1-.355-1.215c.81-.236 1.626-.552 2.416-.857.812-.314 1.652-.64 2.512-.89 3.265-.952 7.423-1.185 11.706-.655 7.779.96 15.63 6.199 20.998 14.014 3.056 4.446 4.471 8.467 4.328 12.29a.634.634 0 0 1-.634.61M91.173 97.468a.633.633 0 0 1-.498-1.023c.466-.594.767-1.061 1.007-1.562.38-.793.739-1.593 1.088-2.408 2.021-4.695 2.668-9.83 1.977-15.699a.633.633 0 0 1 1.26-.148c.718 6.094.04 11.441-2.07 16.347a69.61 69.61 0 0 1-1.11 2.455c-.28.58-.634 1.133-1.152 1.795a.636.636 0 0 1-.502.243M36.822 145.116a.634.634 0 0 1-.34-1.167c2.917-1.848 3.849-6.128 4.6-9.567l.234-1.062c.237-1.043.48-2.122.421-3.132a.635.635 0 0 1 1.267-.074c.07 1.19-.195 2.357-.451 3.486l-.233 1.05c-.756 3.476-1.794 8.237-5.16 10.367a.623.623 0 0 1-.338.1M5.523 153.244a.634.634 0 0 1-.17-1.243c3.668-1.014 7.453-1.555 11.115-2.078 5.755-.823 11.708-1.674 17.112-4.398a.633.633 0 1 1 .572 1.13c-5.591 2.817-11.646 3.683-17.504 4.52-3.622.519-7.367 1.054-10.955 2.046a.657.657 0 0 1-.17.023M103.533 153.852a.633.633 0 0 1-.154-.02c-3.355-.836-5.788-1.692-7.89-2.776a27.468 27.468 0 0 1-5.536-3.757c-6.992-6.103-6.856-14.825-6.722-23.26.018-1.114.034-2.218.034-3.306a.634.634 0 0 1 1.27 0c0 1.095-.017 2.205-.035 3.325-.13 8.147-.262 16.572 6.288 22.288a26.278 26.278 0 0 0 5.283 3.586c2.01 1.037 4.36 1.86 7.614 2.673a.631.631 0 0 1-.152 1.247" fill="#31326F"/>
        <path d="M57.437 157.587a.636.636 0 0 1-.37-.12c-4.82-3.457-9.436-8.914-13.719-16.219l-.154-.262c-.636-1.085-1.293-2.207-1.858-3.37-.04-.083-.091-.174-.145-.27-.24-.435-.541-.976-.45-1.54a.627.627 0 0 1 .72-.52.638.638 0 0 1 .533.722c-.02.134.202.534.308.725.064.117.125.228.176.33.544 1.12 1.16 2.171 1.813 3.284l.154.262c4.192 7.151 8.688 12.478 13.363 15.831a.631.631 0 0 1-.37 1.147M44.546 174.101a.623.623 0 0 1-.393-.136c-3.804-2.987-5.8-7.83-7.562-12.103l-1.498-3.642c-1.418-3.452-2.884-7.022-4.466-10.481a.632.632 0 0 1 .314-.839.637.637 0 0 1 .842.314c1.591 3.481 3.062 7.063 4.483 10.527l1.5 3.64c1.701 4.129 3.63 8.808 7.172 11.591a.63.63 0 0 1-.392 1.129M46.558 173.592a.632.632 0 0 1-.37-1.147c.994-.717 1.739-2.432 2.282-3.684l.312-.706c.982-2.213 2-4.503 3.42-6.575 1.035-1.506 2.624-3.473 4.565-3.16a.633.633 0 1 1-.203 1.25c-1.358-.222-2.83 1.92-3.315 2.624-1.354 1.977-2.302 4.113-3.308 6.375l-.306.695c-.636 1.464-1.427 3.287-2.706 4.208a.631.631 0 0 1-.371.12M61.177 155.844a.633.633 0 0 1-.235-1.22c2.213-.885 4.49-2.595 6.5-4.105l1.079-.806a320.27 320.27 0 0 1 2.69-1.957c3.96-2.859 8.055-5.815 11.29-9.452a.634.634 0 0 1 .95.84c-3.329 3.74-7.481 6.738-11.495 9.637-.9.65-1.797 1.297-2.68 1.95l-1.07.799c-2.074 1.557-4.423 3.321-6.792 4.268a.624.624 0 0 1-.237.046M70.454 172.494a.633.633 0 0 1-.45-.185c-2.29-2.285-3.997-4.607-5.858-7.39-.319-.476-.63-.992-.948-1.518-1.064-1.764-2.166-3.587-3.843-4.424a.631.631 0 0 1-.284-.85.636.636 0 0 1 .852-.282c2.007 1 3.258 3.074 4.363 4.902a36.9 36.9 0 0 0 .916 1.47c1.819 2.72 3.484 4.985 5.7 7.196a.634.634 0 0 1-.448 1.08M73.15 170.797a.63.63 0 0 1-.525-.986c2.334-3.467 5.051-6.724 7.678-9.874 1.91-2.29 3.887-4.66 5.69-7.08.557-.748 1.012-1.53 1.494-2.359.368-.631.735-1.262 1.145-1.872a.636.636 0 0 1 .882-.173c.29.195.367.589.172.878-.396.587-.747 1.195-1.102 1.803-.479.822-.973 1.673-1.573 2.478-1.825 2.448-3.81 4.83-5.733 7.134-2.606 3.126-5.3 6.357-7.602 9.771a.634.634 0 0 1-.527.28" fill="#31326F"/>
        <path d="M58.383 172.81c-.47 0-.944-.066-1.42-.214-2.511-.782-4.18-3.36-4.95-4.828-.55-1.05-1.138-2.264-1.308-3.317a.634.634 0 0 1 1.252-.203c.142.875.676 1.974 1.181 2.933.68 1.295 2.13 3.562 4.202 4.207 2.782.865 6.125-2.102 8.149-4.905a.636.636 0 0 1 .887-.144c.283.205.347.6.143.883-.733 1.016-4.254 5.589-8.136 5.589" fill="#31326F"/>
        <path d="M49.574 209.065h-.013a.631.631 0 0 1-.621-.644c.121-6.825.68-14.228 1.71-22.633l.12-1.014c.603-4.998 1.171-9.721 3.538-14.24a.634.634 0 0 1 1.125.586c-2.259 4.314-2.815 8.925-3.402 13.805l-.124 1.016c-1.021 8.361-1.579 15.721-1.699 22.502a.635.635 0 0 1-.634.622M63.052 208.39a.633.633 0 0 1-.633-.59c-.124-1.929-.106-3.88-.09-5.767.008-.946.016-1.892.008-2.84-.03-2.997-.113-5.99-.196-8.98a494.994 494.994 0 0 1-.193-8.632c-.034-2.87-.203-5.362-.52-7.62-.034-.238-.056-.48-.075-.724-.049-.559-.095-1.086-.3-1.535a.634.634 0 0 1 1.154-.525c.296.646.354 1.31.41 1.95.019.221.038.444.067.659.325 2.311.498 4.856.532 7.78.033 2.873.113 5.742.194 8.611.082 3 .167 6 .195 9.003.01.957.002 1.91-.007 2.865-.016 1.864-.034 3.792.088 5.672a.635.635 0 0 1-.593.674h-.041" fill="#31326F"/>
        <path d="M162.22 65.052c-3.825-1.244-9.386 1.683-12.067 3.678-8.135 6.047-16.04 15.012-17.169 25.554-.527 4.921 1.45 9.725 3.695 14.017 2.638 5.049 5.509 9.967 8.477 14.797 1.216 1.98 2.77 3.883 4.334 5.554 1.01 1.078 2.662 2.618 2.55 3.684-.354 3.437-2.61 8.413-4.175 13.817-1.294 4.469 1.016 9.282 2.407 13.577 2.636 8.144 5.171 17.51 14.764 19.754 1.41.33 2.874.491 4.324.46 1.935-.037 3.815-1.304 5.313-2.259 4.652-2.964 5.88-8.677 7.711-13.452 1.522-3.965 3.957-8.01 6.029-11.758.618-1.122 2.571-2.68 2.54-4.096-.087-4.311-2.7-7.836-3.745-11.918-1.008-3.934-.333-8.075 1.052-11.809 1.176-3.173 3.514-7.012 5.937-9.414 2.77-2.747 6.063-4.757 7.355-8.702 1.512-4.62-.393-10.26-2.002-14.612-1.118-3.025-2.943-5.76-4.489-8.573-1.588-2.884-3.149-5.822-5.093-8.49-1.376-1.89-3.356-3.17-5.15-4.625-5.555-4.502-11.782-7.585-18.827-5.267-.932.307-3.064.313-3.77.083" fill="#FFF5F3"/>
        <path d="M149.123 128.382c.163.218-.661 1.044-1.102.965-1.56-.284-3.758-.923-5.123-1.736-3.807-2.266-5.278-3.72-7.916-7.42-3.392-4.755-6.159-10.688-6.537-16.462-.204-3.118.222-6.017.34-9.154.097-2.51-.304-4.649-.03-7.217.636-6.003 3.407-14.896 6.297-21.271 1.971-4.353 3.765-7.655 6.606-11.434 2.349-3.127 6.565-5.942 10.633-6.929 2.579-.625 5.649-.022 8.244.076 1.734.065 2.257-.296 5.05-1.102 2.791-.806 7.927-.698 13.102 1.098 5.074 1.76 9.253 4.354 12.363 7.7 8.47 9.109 9.602 20.182 12.73 30.276 1.162 3.757 2.942 7.533 4.484 11.092 1.497 3.444 2.94 9.505 2.606 13.217-.211 2.381-.837 7.11-2.276 10.175-1.15 2.45-4.141 4.99-4.039 7.154.145 3.073 4.073 6.1 5.568 8.617 2.078 3.503 3.121 6.794 2.92 10.779-.236 4.732-1.7 9.22-3.637 12.312-1.13 1.806-3.423 5.622-4.041 7.66-1.002 3.293-.948 6.69-1.079 10.167-.165 4.333-.086 7.064.022 11.415.109 4.35-.03 5.281-.565 9.236-1.795 13.257-8.567 18.588-11.155 19.902-2.747 1.392-6.462.808-4.444.28 3.16-.827 3.584-7.407 3.303-12.846-.173-3.318-1.01-7.4-2.41-10.5-1.275-2.81-3.268-5.726-4.73-8.45-1.464-2.722-1.828-3.839-3.06-7.81-1.233-3.972-1.656-8.59-1.429-13.428.104-2.206.724-7.32 1.111-9.514.665-3.756 1.056-5.466 2.265-9.089.715-2.14 2.916-5.283 3.49-7.42.395-1.469-.66-3.795-.547-5.813.222-4.015-.816-5.502 1.016-9.077 3.143-6.138 4.695-13.604 5.053-13.762 1.733-.765 5.412-3.097 4.477-4.396-.308-.429-4.41-2.565-7.838-7.247-1.477-2.018-1.767-2.717-3.42-7.18-1.603-4.33-3.458-12.388-7.673-17.753-1.64-2.089-4.053-4.787-6.397-6.07-1.62-.884-3.566-1.947-5.412-2.13-3.308-.325-6.575 1.152-8.595 1.435-5.535.773-8.132 11.5-13.393 19.198-2 2.926-4.333 3.942-7.31 5.713-.944.562-1.74 1.025-1.992 2.134-.656 2.852-.817 6.2 1.24 8.923s3.655 3.854 4.533 4.254c.748.34.499 1.806.585 2.57.607 5.4 1.516 8.582 4.066 13.294.973 1.796 2.57 3.596 4.046 5.568" fill="#BED7F4"/>
        <path d="M149.22 140.442c.414.272.996 2.627 1.5 3.847 1.148 2.781 2.996 5.547 5.13 7.674 1.145 1.142 2.593 2.13 3.925 3.015 2.381 1.585 4.207 2.003 5.408 4.8.74 1.717.263 4.284-.197 5.892-.45 1.566-.767 3.039-.63 4.693.132 1.586.5 3.105 1.617 4.218.37.37 1.382 1.316 1.959.74.444-.444.636-1.134.876-1.68a14.63 14.63 0 0 0 1.233-5.301c.13-2.855-.4-6.079.522-8.837.747-2.236 3.02-3.15 4.725-4.51 1.636-1.304 3.274-2.51 4.792-3.971 1.152-1.11 1.711-1.67 2.43-2.627.079-.103.476-.257.482-.172.025.39-.568 2.027-.608 2.144-.591 1.77-.958 3.428-1.272 5.592-.876 6.054-1.769 12.519-.532 18.683.792 3.952 1.824 7.724 3.819 11.26 1.18 2.092 2.302 3.582 2.476 6.006.113 1.565-.23 4.231-.308 5.743-.213 4.126-.13 5.708-.32 9.267-.047.901-.4 2.432-.228 3.208.147.659-.135 1.598-.135 2.288 0 1.08-.328 2.935-.217 4.028.12 1.212.181 2.506-.322 2.703-2.186.854-4.541 1.154-6.75 1.482-3.022.448-5.748.512-8.774.268-6.426-.52-13.07-1.716-19.033-4.241-1.267-.534-4.374-1.048-5.197-2.22-.685-.977-.217-3.004-.174-4.05.154-3.678.423-7.478.113-11.24-1.05-12.779-4.173-25.36-4.173-38.371 0-5.725.813-11.769 3.648-16.858.95-1.704 2.649-4.502 4.215-3.473" fill="#FFF"/>
        <path d="M112.383 156.416c-.001-.304 1.719-.744 1.972-.819 1.494-.447 2.45-.473 3.974-.841 2.308-.559 5.305-1.098 7.89-1.514 2.585-.417 3.42-.64 5.196-1.208 1.605-.515 4.472-1.816 5.503-2.345 1.107-.567 1.05-2.698 2.173-4.206 1.447-1.937 3.948-3.436 6.005-4.57.345-.19 2.296-1.104 2.959-.5.405.37-.89.603-1.041.796-1.056 1.34-1.428 1.873-2.115 3.433-1.763 4.008-3.498 9.825-3.367 13.879.213 6.52.488 13.229 1.305 19.693.595 4.714 1.485 8.54 2.078 13.384.404 3.31.87 7.95.91 11.265.04 3.204.047 4.68-.238 7.8-.087.962-.376 3.143-.754 4.041-.26.617-3.278.606-3.505.622-3.785.267-7.091-.025-10.806-.81-4.412-.935-8.86-1.54-13.243-2.577-1.007-.236-2.908-.335-3.704-1.11-1.691-1.644-1.322-4.714-1.26-7.212.063-2.496.106-5.722.025-7.985-.096-2.724-.121-5.541-.087-8.302.057-4.692.2-8.952.066-13.647-.161-5.653.1-10.554.064-17.267M187.085 191.587c1.08.24 1.937 2.661 2.518 3.952 2.415 5.369 3.051 15.321.52 20.756-.574 1.233-.6.689-1.82 1.404-.887.52 1.092.543 3.018.3 1.926-.24 7.582-4.666 9.747-10.069 2.283-5.693 3.507-13.026 3.249-19.224-.145-3.532-.348-7.708-.362-11.225-.013-3.276.003-6.36.937-9.466 1.269-4.217 3.25-7.516 5.562-11.205.715-1.14 1.42-3.787 2.03-3.838 1.104-.091 4.219 1.53 5.952 2.033 1.435.415 4.618 1.426 4.935 1.67.314.246.176 4.095.188 5.74.043 5.8.018 10.6-.018 16.397a903.736 903.736 0 0 0 .043 16.144c.061 5.111.067 8.274.065 13.372-.002 2.808.157 5.11.138 7.227-.02 2.117.08 3.486-.088 4.652-.106.73-4.493.828-5.984.972-2.5.24-5.01.053-8.67-.228-3.31-.256-5.646-.509-9.167-.641-3.055-.115-4.242-.423-8.392-.443-1-.004-3.89-.389-4.914-.316-1.025.076-1.16-1.089-1.059-2.22.332-3.716.663-10.99.65-13.942-.01-2.953.218-5.772.321-7.589.12-2.059-.311-4.415.6-4.213" fill="#FFDBCC"/>
        <path d="M165.384 137.403c-8.11 0-15.073-5.803-19.142-11.891-3.998-5.98-6.025-13.236-6.025-21.567 0-.35.283-.632.634-.632.351 0 .635.283.635.632 0 8.076 1.955 15.096 5.811 20.865 4.998 7.475 14.544 14.52 25.018 9.775 2.857-1.296 5.373-2.95 7.086-4.66a.636.636 0 0 1 .897 0 .633.633 0 0 1 0 .896c-1.817 1.813-4.467 3.559-7.458 4.916-2.555 1.159-5.057 1.666-7.456 1.666M186.372 125.605a.632.632 0 0 1-.554-.942c4.001-7.14 5.82-13.428 5.406-18.688a.632.632 0 0 1 .583-.68.63.63 0 0 1 .682.58c.434 5.514-1.437 12.043-5.564 19.406a.634.634 0 0 1-.553.324" fill="#31326F"/>
        <path d="M192.29 110.512a1.03 1.03 0 0 1-.555-.152.63.63 0 0 1-.206-.87.635.635 0 0 1 .796-.247c.125-.016.367-.126.722-.33 1.252-.701 2.376-1.836 3.243-3.24a.634.634 0 0 1 1.08.664c-.693 1.12-1.883 2.661-3.623 3.635-.405.23-.944.54-1.456.54M140.613 107.612a.637.637 0 0 1-.27-.06c-4.076-1.904-6.832-6.35-6.705-10.811.099-3.458 1.597-5.822 4.01-6.323a.632.632 0 1 1 .258 1.239c-2.59.538-2.96 3.76-2.999 5.12-.113 3.91 2.4 7.96 5.975 9.63a.631.631 0 0 1-.27 1.205" fill="#31326F"/>
        <path d="M140.102 100.275a.634.634 0 0 1-.63-.583c-.042-.514-.725-1.357-1.329-1.64a.633.633 0 1 1 .538-1.145c.923.431 1.97 1.613 2.056 2.684a.633.633 0 0 1-.635.684M152.105 96.828s-.174.11-.117.222c.074.146.287.23.436.17a.42.42 0 0 0 .154-.105c.029-.115.014-.224-.023-.28-.041-.06-.255-.128-.45-.007zm.237 1.198c-.314 0-.631-.174-.845-.489-.256-.383-.204-.762-.008-1.005a.79.79 0 0 1 .474-.49.896.896 0 0 1 1.16.442c.222.44.152 1.107-.344 1.417a.819.819 0 0 1-.437.125z" fill="#31326F"/>
        <path d="M152.304 97.846a.635.635 0 0 1-.6-.427c-.072-.158-.248-.547.007-.92a.64.64 0 0 1 .883-.167.632.632 0 0 1 .273.583c.016.038.028.065.037.092a.633.633 0 0 1-.6.839M177.808 96.837a.355.355 0 0 0-.258.103c-.011.018-.015.092.066.154.124.094.292.058.342.006.065-.085.065-.172.056-.193a.283.283 0 0 0-.183-.07h-.023zm0 1.265a.966.966 0 0 1-.619-.233c-.423-.352-.616-1.056-.233-1.543.26-.332.613-.483.991-.428.364.06.67.324.801.691a1.18 1.18 0 0 1-.25 1.193.923.923 0 0 1-.69.32z" fill="#31326F"/>
        <path d="M177.786 97.766a.636.636 0 0 1-.622-.506l-.04-.211c-.112-.332.053-.74.384-.852.33-.113.676.017.787.347l-.6.202.616-.153c.047.133.045.133.063.232l.036.181a.633.633 0 0 1-.624.76M164.154 110.867a.63.63 0 0 1-.35-.106c-.624-.415-1.085-1.081-1.305-1.44a7.01 7.01 0 0 1-.608-1.271c-.292-.809-.67-1.86-.195-2.71.243-.445.677-.56.935-.63.074-.018.152-.04.188-.058.844-.424 1.448-.936 1.575-1.336.388-1.215.015-2.562-.345-3.866l-.169-.624a.63.63 0 0 1 .454-.772.631.631 0 0 1 .772.452l.167.608c.388 1.413.831 3.013.331 4.586-.305.955-1.373 1.659-2.213 2.082-.154.078-.308.118-.43.152a1.19 1.19 0 0 0-.194.061c-.157.308.104 1.034.278 1.515.174.48.34.83.538 1.152.277.454.622.845.924 1.047a.63.63 0 0 1-.353 1.158M148.605 87.92a.633.633 0 0 1-.276-1.203c2.01-.97 4.278-1.035 6.389-.187.326.13.484.5.35.824a.638.638 0 0 1-.823.35c-1.801-.722-3.656-.67-5.364.153a.635.635 0 0 1-.276.063M182.116 88.024a.632.632 0 0 1-.264-.057c-1.665-.76-3.69-.834-5.555-.205a.633.633 0 1 1-.405-1.2c2.17-.73 4.536-.637 6.489.254.317.145.457.521.313.839a.64.64 0 0 1-.578.37M167.826 119.657c-.75 0-1.494-.023-2.225-.045l-.945-.028c-1.94-.049-4.059-.103-5.931-.726a.631.631 0 0 1-.402-.8.637.637 0 0 1 .803-.4c1.693.563 3.625.611 5.494.66l1.022.029c1.424.045 2.768.087 4.141-.026.246-.02.536-.03.844-.041.839-.03 1.882-.065 2.426-.337a.632.632 0 1 1 .568 1.13c-.792.397-1.938.437-2.95.472-.288.01-.556.02-.784.038a25.58 25.58 0 0 1-2.06.074" fill="#31326F"/>
        <path d="M165.876 127.143c-.263 0-.521-.013-.772-.042-1.568-.181-3.11-1.038-3.955-1.717-2.577-2.075-2.901-5.314-2.865-7.06.007-.348.267-.652.647-.62.35.008.629.296.622.646-.031 1.514.238 4.314 2.392 6.05.769.617 2.09 1.303 3.306 1.444 1.287.142 2.903-.191 3.928-.823 2.088-1.287 2.803-2.938 3.333-5.353l.036-.16c.065-.288.169-.734.192-.928a.64.64 0 0 1 .704-.554c.35.043.597.357.554.704-.025.221-.14.73-.212 1.057l-.035.153c-.572 2.602-1.456 4.646-3.905 6.158-1.063.656-2.58 1.045-3.97 1.045M138.964 90.334a.634.634 0 0 1-.012-1.266c1.994-.041 4.171-3.072 5.102-4.366 1.919-2.669 3.31-5.712 4.653-8.656a133.271 133.271 0 0 1 1.658-3.535c1.238-2.517 3.075-5.474 6.304-6.004a.632.632 0 1 1 .204 1.248c-2.64.435-4.195 2.93-5.368 5.314a130.275 130.275 0 0 0-1.644 3.501c-1.369 3-2.784 6.1-4.777 8.87-1.13 1.57-3.475 4.839-6.105 4.894h-.015M200.125 107.77a.632.632 0 0 1-.408-.147c-.672-.563-1.472-.914-2.317-1.287-.48-.212-.961-.425-1.422-.675-3.354-1.828-6.28-4.488-8.24-7.491-1.659-2.537-2.673-5.566-3.449-8.194-2.616-8.88-5.38-16.633-12.764-21.566-2.554-1.707-6.317-3.227-9.229-2.374a.631.631 0 0 1-.787-.428.63.63 0 0 1 .43-.786c4.192-1.233 8.937 1.631 10.292 2.536 7.727 5.162 10.69 13.476 13.275 22.26.75 2.541 1.726 5.462 3.294 7.86 1.847 2.832 4.614 5.343 7.784 7.072.432.234.88.43 1.33.629.889.39 1.806.796 2.618 1.473a.631.631 0 0 1-.407 1.118M157.513 63.17a.633.633 0 0 1-.627-.735c.08-.497.086-1.022.091-1.579.004-.589.01-1.198.11-1.806.475-2.88 1.52-5.317 3.392-7.902a.637.637 0 0 1 .887-.142c.283.204.348.6.142.883-1.751 2.418-2.73 4.69-3.169 7.366-.084.512-.087 1.046-.093 1.612-.005.58-.01 1.18-.107 1.772a.635.635 0 0 1-.626.53M128.598 104.314a.634.634 0 0 1-.63-.56c-.238-2.084-.075-4.336.083-6.513.127-1.737.258-3.533.177-5.197-.16-3.242.217-6.818 1.117-10.628.588-2.5 1.303-5.402 2.328-8.216 3.112-8.574 10.402-28.646 26.36-26.049.346.057.58.382.523.727a.644.644 0 0 1-.73.523c-13.203-2.158-20.281 12.35-24.962 25.23-1 2.75-1.702 5.61-2.285 8.076-.872 3.694-1.236 7.152-1.085 10.276.086 1.74-.049 3.575-.176 5.35-.154 2.119-.314 4.31-.088 6.276a.633.633 0 0 1-.632.705M147.92 130.083a.655.655 0 0 1-.162-.02c-2.568-.678-4.368-1.354-6.21-2.336-2.044-1.085-3.729-2.917-5.107-4.565-3.973-4.754-6.869-10.76-8.15-16.911a.633.633 0 1 1 1.242-.257c1.24 5.95 4.04 11.76 7.881 16.357 1.301 1.555 2.88 3.277 4.731 4.26 1.749.932 3.47 1.577 5.937 2.228a.633.633 0 0 1-.161 1.244M203.962 86.995a.634.634 0 0 1-.572-.358c-1.437-2.979-1.99-5.846-2.578-8.882l-.296-1.507c-.747-3.727-2.254-7.372-3.484-10.13-5.216-11.718-14.96-18.7-26.73-19.155-1.393-.044-4.861.478-5.994.917-.215.083-.415.207-.623.334a7.025 7.025 0 0 1-.77.417.634.634 0 0 1-.517-1.157c.228-.1.432-.225.631-.344.274-.165.54-.32.819-.43 1.42-.55 5.039-1.059 6.503-1.002 12.274.475 22.42 7.73 27.84 19.905 1.257 2.82 2.798 6.548 3.568 10.397l.298 1.516c.572 2.952 1.111 5.74 2.477 8.572a.631.631 0 0 1-.572.907" fill="#31326F"/>
        <path d="M194.473 132.557a.633.633 0 0 1-.502-1.02c1.153-1.484 2.783-2.319 4.362-3.126.685-.35 1.332-.682 1.945-1.063.562-.352 1.059-.637 1.512-.898 1.249-.72 2.152-1.239 3.338-2.51 5.471-5.86 5.658-15.877 4.154-22.674-.378-1.706-1.218-3.417-2.11-5.23-1.04-2.116-2.117-4.306-2.398-6.517a.635.635 0 0 1 .55-.708c.33-.043.665.2.71.548.254 2.003 1.282 4.096 2.279 6.12.883 1.8 1.797 3.66 2.208 5.514 1.57 7.096 1.344 17.59-4.463 23.808-1.317 1.412-2.338 2-3.634 2.745-.442.254-.926.532-1.476.875-.656.41-1.357.769-2.036 1.116-1.521.779-2.959 1.514-3.937 2.774a.632.632 0 0 1-.502.246M149.852 141.687a.631.631 0 0 1-.6-.836l.074-.219c.788-2.328 1.534-4.528 1.928-6.954l.04-.243c.103-.615.207-1.25.067-1.774a.633.633 0 0 1 .448-.776.63.63 0 0 1 .776.447c.213.79.08 1.598-.04 2.311l-.039.236c-.41 2.532-1.173 4.78-1.978 7.159l-.075.219a.632.632 0 0 1-.6.43" fill="#31326F"/>
        <path d="M166.099 175.271a.638.638 0 0 1-.47-.206c-1.761-1.932-2.387-4.876-1.717-8.076.117-.555.275-1.104.434-1.653.317-1.097.617-2.132.572-3.202-.043-.994-.398-2.053-1.09-3.238-.657-1.13-2.331-2.082-3.808-2.922a27.323 27.323 0 0 1-1.498-.89c-4.123-2.71-6.553-6.957-8.02-9.915l-.221-.438c-.58-1.135-1.371-2.689-1.366-3.926a.633.633 0 0 1 .635-.63h.003c.35.002.633.287.63.636-.004.931.737 2.385 1.227 3.346l.227.45c2.231 4.492 4.642 7.485 7.584 9.42.409.269.903.55 1.426.847 1.617.92 3.448 1.96 4.278 3.386.797 1.366 1.21 2.617 1.261 3.821.054 1.276-.29 2.46-.621 3.606-.15.519-.301 1.037-.41 1.561-.587 2.798-.072 5.337 1.413 6.964a.63.63 0 0 1-.47 1.06" fill="#31326F"/>
        <path d="M141.48 160.694h-.016a.633.633 0 0 1-.618-.648c.009-.396.01-.793.014-1.19.006-.947.013-1.925.113-2.893.416-3.957 1.516-7.847 3.267-11.562l.084-.181c.903-1.92 1.837-3.907 4.152-4.66a.633.633 0 1 1 .394 1.203c-1.793.584-2.537 2.164-3.395 3.994l-.086.182c-1.692 3.587-2.751 7.34-3.154 11.156-.095.905-.1 1.853-.106 2.769-.002.404-.005.81-.014 1.213a.635.635 0 0 1-.635.617M145.066 215.08a.632.632 0 0 1-.629-.726c1.563-10.468-.014-21.134-1.54-31.45l-.45-3.054c-.417-2.9-.65-5.86-.874-8.724a237.264 237.264 0 0 0-.396-4.678.634.634 0 0 1 .57-.692.64.64 0 0 1 .694.57c.152 1.562.276 3.132.398 4.702.222 2.844.453 5.782.867 8.64l.446 3.05c1.54 10.407 3.13 21.168 1.54 31.823a.63.63 0 0 1-.626.54" fill="#31326F"/>
        <path d="M134.653 158.41a.633.633 0 0 1-.61-.81c.46-1.57 1.01-3.127 1.542-4.633.206-.583.41-1.165.61-1.75.15-.433.29-.897.436-1.374.46-1.514.982-3.23 1.946-4.5 2.066-2.728 5.889-5.08 9.74-5.989a.634.634 0 1 1 .292 1.231c-3.58.847-7.122 3.014-9.021 5.521-.826 1.09-1.292 2.622-1.742 4.104-.15.492-.296.971-.45 1.419-.202.586-.408 1.172-.614 1.758-.525 1.49-1.07 3.03-1.518 4.567a.637.637 0 0 1-.611.456M135.223 178.59a.636.636 0 0 1-.63-.55c-.51-3.889-1.09-8.297-.987-12.714a.646.646 0 0 1 .649-.618.633.633 0 0 1 .62.647c-.1 4.32.471 8.676.978 12.52a.633.633 0 0 1-.63.715" fill="#31326F"/>
        <path d="M116.772 155.97a.633.633 0 0 1-.176-1.242c2.266-.645 4.663-1.12 6.982-1.578 4.56-.903 9.277-1.836 13.232-4.112a.634.634 0 0 1 .635 1.096c-4.138 2.38-8.959 3.334-13.62 4.257-2.293.454-4.666.924-6.88 1.554a.646.646 0 0 1-.173.025M149.98 172.619a.976.976 0 0 1-.715-.283c-.352-.357-.314-.873-.29-1.213l.01-.172c.025-1.432-.446-2.833-.96-4.133-.834-2.102-1.997-4.184-3.122-6.198-.79-1.413-1.608-2.873-2.306-4.334a.633.633 0 1 1 1.145-.545c.682 1.425 1.489 2.867 2.268 4.263 1.147 2.05 2.332 4.17 3.194 6.35.537 1.353 1.08 2.96 1.05 4.618a4.163 4.163 0 0 1-.013.24l-.007.1c.894-.225 2.088-1.306 2.642-2.058.87-1.185 1.58-2.513 2.266-3.797.728-1.362 1.48-2.772 2.443-4.054 1.032-1.376 2.31-2.203 3.6-2.33 1.093-.101 2.176.284 3.127 1.135a.633.633 0 1 1-.848.942c-.688-.616-1.42-.895-2.154-.817-.931.091-1.894.74-2.709 1.828-.903 1.206-1.602 2.51-2.339 3.89-.707 1.325-1.439 2.694-2.363 3.952-.712.967-2.385 2.534-3.848 2.614-.025.002-.048.002-.071.002M167.86 175.782a.63.63 0 0 1-.471-1.055c.731-.812 1.174-2.486 1.414-3.384.613-2.295.688-4.533.77-6.9.04-1.157.081-2.353.19-3.553.122-1.355.887-2.474 1.903-2.783.5-.15 1.484-.226 2.46.973.823 1.006 1.133 2.19 1.436 3.334.172.66.337 1.285.592 1.86.734 1.663 1.734 2.586 3.112 3.537a.635.635 0 0 1-.724 1.041c-1.514-1.046-2.698-2.14-3.55-4.067-.294-.667-.48-1.37-.66-2.05-.277-1.06-.542-2.062-1.189-2.857-.267-.328-.676-.687-1.106-.56-.503.153-.937.878-1.01 1.686-.106 1.165-.145 2.343-.187 3.482-.079 2.334-.161 4.748-.811 7.181-.368 1.386-.834 2.947-1.696 3.905-.125.14-.299.21-.473.21M172.722 157.757a.633.633 0 0 1-.357-1.156c2.635-1.783 5.047-3.961 7.38-6.067.781-.707 1.562-1.412 2.35-2.104a.633.633 0 1 1 .839.95c-.784.689-1.562 1.39-2.338 2.092-2.365 2.135-4.81 4.344-7.517 6.176a.631.631 0 0 1-.357.11M187.087 138.819a.637.637 0 0 1-.604-.433c-.972-2.914-.957-5.684-.938-8.618l.006-1.192a.634.634 0 0 1 1.269 0l-.006 1.2c-.018 2.826-.034 5.495.875 8.21a.634.634 0 0 1-.602.833" fill="#31326F"/>
        <path d="M187.99 218.448a.635.635 0 0 1-.282-1.201c2.513-1.238 2.87-3.247 3.099-5.951.317-3.71.473-10.686-2.03-15.74-.773-1.558-1.622-3.128-2.445-4.65-2.328-4.304-4.734-8.755-5.835-13.687-1.406-6.295-1.458-12.92-.164-20.844 1.428-8.753 4.053-15.68 8.031-21.178a.634.634 0 0 1 1.029.74c-3.858 5.335-6.414 12.087-7.808 20.641-1.267 7.76-1.218 14.233.152 20.367 1.061 4.76 3.427 9.132 5.713 13.361.826 1.53 1.681 3.111 2.464 4.69 2.64 5.33 2.484 12.567 2.158 16.407-.25 2.916-.706 5.453-3.8 6.978a.624.624 0 0 1-.282.067M204.336 176.92a.633.633 0 0 1-.629-.566c-.444-4.176.278-8.269 2.215-12.508.633-1.39 1.432-2.752 2.206-4.071 1.068-1.821 2.17-3.703 2.833-5.65 2.6-7.65 1.42-15.046-3.157-19.787a.631.631 0 0 1 .016-.894.637.637 0 0 1 .898.017c4.912 5.087 6.2 12.964 3.446 21.07-.704 2.068-1.842 4.008-2.94 5.883-.757 1.29-1.54 2.626-2.148 3.956-1.838 4.029-2.526 7.905-2.107 11.85a.631.631 0 0 1-.565.696c-.021.004-.044.004-.068.004" fill="#31326F"/>
        <path d="M190.386 219.152a.631.631 0 0 1-.298-1.192c.545-.29 1.092-.541 1.63-.788 1.255-.576 2.44-1.12 3.485-2.127 4.652-4.495 7.363-11.4 8.056-20.526l.111-1.374c.271-3.242.527-6.303-.25-9.383a.635.635 0 0 1 1.233-.31c.826 3.284.55 6.596.284 9.798l-.11 1.366c-.72 9.444-3.56 16.622-8.443 21.339-1.199 1.158-2.537 1.772-3.835 2.367-.518.237-1.04.477-1.564.756a.637.637 0 0 1-.3.074M185.463 218.35a.634.634 0 0 1-.636-.632c0-1.835.186-3.697.367-5.496l.07-.708c.342-3.489.407-7.152.47-10.69l.05-2.608c.02-.9.1-1.835.177-2.736.136-1.615.278-3.283.086-4.814a.634.634 0 0 1 .55-.708c.344-.048.665.201.71.549.208 1.666.06 3.401-.08 5.08-.078.896-.153 1.788-.173 2.658l-.052 2.6c-.062 3.566-.129 7.252-.475 10.793l-.071.71c-.178 1.768-.36 3.598-.359 5.37a.635.635 0 0 1-.634.633M221.407 156.672a.62.62 0 0 1-.18-.026c-1.556-.46-3.098-1.025-4.589-1.571-1.474-.541-2.998-1.1-4.519-1.549a.633.633 0 0 1-.43-.786.638.638 0 0 1 .788-.428c1.563.46 3.106 1.027 4.6 1.575 1.472.54 2.993 1.097 4.51 1.545a.632.632 0 0 1-.18 1.24M119.288 210.041a.635.635 0 0 1-.63-.584c-.225-2.826-.178-5.655-.13-8.39.08-4.794.158-9.32-1.09-13.918a.633.633 0 1 1 1.225-.332c1.293 4.772 1.211 9.602 1.134 14.272-.047 2.705-.093 5.503.125 8.27a.631.631 0 0 1-.634.682" fill="#31326F"/>
        <path d="m111.713 228.092-.299-226.818a.634.634 0 0 1 1.269-.002l.3 226.817a.636.636 0 0 1-1.27.003z" fill="#31326F" opacity=".3"/>
    </g>
</svg>
