<svg width="156" height="232" viewBox="0 0 156 232" xmlns="http://www.w3.org/2000/svg">
    <g fill="none" fill-rule="evenodd">
        <path d="M57.732 49.116c0-18.844 13.136-28.952 23.722-28.952 10.582 0 27.314 9.787 27.314 28.631 0 6.969-4.746 16.318-8.026 27.842-5.592 19.642-11.816 41.813-18.486 41.813-10.583 0-24.524-50.49-24.524-69.334M47.378 159.328c2.04-1.565 7.075-9.048 9.593-14.56 2.517-5.512 4.832-14.222 10.616-14.222s17.622-.407 14.085 5.376c-3.54 5.784-14.085 25.04-16.806 27.15-2.723 2.109-7.622 8.573-11.025 10.818-3.403 2.246-6.395-1.973-7.347-5.784-.955-3.81-1.158-7.212.884-8.778M138.012 161.37c.272 4.219-.136 10.819-5.444 12.724-5.306 1.906-5.444 3.335-9.527.885-4.081-2.45-4.83-3.54-15.173-11.294-10.342-7.757-17.01-8.439-13.676-14.085 3.334-5.65 12.246-7.691 17.419-5.922 5.17 1.77 1.09-2.108 4.15-5.646 3.063-3.54 9.527-1.634 11.704 1.088 2.178 2.722 3.266 2.858 6.395.477 3.13-2.383 4.765-3.811 4.492 1.904-.272 5.717-.613 15.65-.34 19.869" fill="#FFF5F3"/>
        <path d="M61.645 120.934c-2.307-2.694-2.207-2.886-1.245-4.843 2.161-4.403-5.243-5.109-4.378-10.496.454-2.814 1.566-5.551.79-7.03-.438-.833-2.188-1.807-3.153-3.777-.75-1.53-.133-2.834-.553-4.742-.338-1.525-1.14-1.601-1.521-3.392-.382-1.791 1.414-2.941.523-3.83-.59-.591-2.49-2.67-1.005-5.324.488-.868-2.908-3.531-3.588-5.947-.68-2.417-.716-3.481-.463-6.061.203-2.055 1.716-5.713 2.795-10.083.351-1.43.618-3.749 1.101-6.697.617-3.75.457-8.693 1.014-12.837.519-3.852 2.231-8.219 3.338-11.616 1.216-3.74 1.638-5.216 4.134-9.526 3.386-5.847 7.097-9.207 11.2-11.67C73.175 1.533 77.915.498 82.187.645c2.52.086 4.653.611 6.83 1.53 1.372.58 3.194.756 6.402 2.21 1.876.85 6.97 5.293 8.92 8.564 1.879 3.145 3.684 6.084 5.103 9.504 3.749 9.03 4.241 16.51 4.939 25.022.173 2.11.41 4.98.714 6.86.673 4.172 1.51 6.934 1.561 10.25.053 3.504-1.52 7.069-3.102 8.081-2.216 1.42-2.432 1.18-4.07.968-.492-.065-.04 1.178.071 2.382.213 2.236.548 5.424.573 7.498.096 7.792 1.54 13.418 2.31 22.652.769 9.237-2.02 8.036-5.1 9.767-3.079 1.73-5.163 1.12-4.973-5.903.194-7.024 1.125-11.99.837-15.935-.115-1.578-1.087-2.646-1.663-4.84-.865-3.29-1.416-8.07-1.416-12.571 0-2.157-4.25-2.741-2.707-4.469 1.829-2.045 3.802-4.816 4.162-5.642 1.23-2.806 3.01-8.143 3.504-11.096.725-4.355.264-8.05-1.565-13.106-.354-.974-.298-2.867-.797-3.877-1.945-3.952-2.72-8.501-5.904-9.067-1.637-.29-4.526-2.649-7.286-.773-2.744 1.864-5.04 4.265-6.613 6.791-2.731 4.386-9.234 10.641-13.872 11.618-7.312 1.539-9.655-1.013-9.502 2.184.138 2.961.924 4.164 1.572 4.825 1.347 1.375 2.875.02 3.13 3.25.259 3.274.414 6.858.501 10.302.06 2.348-1.417 6.172-3.056 7.732-4.04 3.848-1.777 1.714-1.584 10.467.192 8.754 2.195 16.324 4.889 22.769 1.621 3.883.34 6.893-1.644 9.062-1.26 1.378-.788 4.35-1.707 3.28" fill="#BED7F4"/>
        <path d="M31.648 148.571c.072.05 2.644 5.973 3.858 10.083 1.16 3.922 1.257 6.298 1.098 6.528-.29.423-7.237 2.664-7.237 2.468 0-.64.538-13.916 1.655-18.378.138-.16.311-.73.626-.7zm67.444-76.43c-.774-.024-1.87.503-3.05 1.493-3.198 2.685-3.27 3.16-4.607 5.186-2.963 4.485-4.81 9.775-5.3 14.67-.286 2.88-.708 8.02-1.179 11.664-.361 2.793-1.032 4.172-1.49 5.987-.511 2.024-1.33 4.297-1.937 2.315-.89-2.906-3.371-7.877-4.096-9.928-.789-2.236-.563-5.186-1.025-8.814-.413-3.279-4.533-8.564-6.522-11.13-2.464-3.182-5.307-5.64-6.187-7.367-1.335-2.62-2.855-.17-4.831 1.736-.694.67 1.332 3.294 1.293 4.029-.058 1.016-.635 1.959-.179 3.05.35.841.449.854.534 1.824.188 2.16-.459 2.484-.178 3.696.23.997.36 1.816.489 2.827.26 2.05-.79 4.25-.845 6.01-.093 3.007 2.106 4.198 3.962 7.033 1.46 2.23 2.336 5.872 1.402 8.28-.673 1.738-2.718 3.799-2.916 4.876-.418 2.27-3.547-1.637-2.448-2.605.838-.738.993-2.039.579-3.472-.386-1.336-1.606-1.995-2.648-3.005-.722-.698-1.339-1.762-1.649-2.538-.96-2.403.697-7.716.891-8.748.194-1.031-1.273-2.048-2.138-2.716-1.787-1.38-2.11-3.495-1.914-5.342.15-1.395.054-1.415-.801-2.604-.746-1.038-1.267-2.25-.868-3.027.855-1.67 1.019-2.265.556-2.605-.91-.669-1.433-2.025-1.246-3.094.187-1.069.723-1.94.713-2.604-.01-.562-2.017.652-5.544 1.937-4.207 1.531-8.584 2.476-14.713 4.873-5.09 1.992-7.476 2.507-10.017 4.609-3.085 2.552-7.818 7.806-10.15 12.91-4.707 10.306-3.449 22.296-5.41 30.919-.828 3.648-2.333 8.774-2.937 14.313-.824 7.56-.82 17.754-1.782 26.066-1.666 14.403.378 15.517 1.848 24.04.522 3.029 4.905 2.616 8.302 2.382 6.385-.44 12.738-3.705 16.719-5.854 2.868-1.547 10.116-5.906 14.489-9.683 1.947-1.68 2.987-4.036 3.986-3.25 1.962 1.542 3.091 1.571 3.294.802.499-1.895 3.272-3.453 5.41-5.92 1.806-2.088 1.208-4.076.377-5.1-.54-.667-3.272 3.704-4.474 3.296-1.117-.38-3.57-6.89-3.806-9.038-.48-4.368.006-4.749 1.603-5.632 1.215-.67 2.657-2.502 3.493-3.651 2.312-3.171 4.61-8.832 7.035-14.178.843-1.854 3.753-3.46 4.585-4.965.93-1.678 2.161-3.33 3.006-3.94 1.347-.973 1.349 1.294 1.403 1.47.294.965 1.656 1.36 2.848 1.046 1.192-.313 1.829.621 2.894-.401 1.832-1.759 6.232 3.533 7.792 3.873 3.133.687 31.285-11.545 38.24-10.172 4.938.972 17.042 6.728 15.784 14.313-.622 3.735 1.002 7.247.845 9.192-.401 4.928-1.27 5.22-.734 8.058.25 1.328 1.203 2.715 1.246 4.965.175 9.054-12.477 11.228-14.045 11.286-1.57.056.036 1.437 1.002 4.163.78 2.207 1.394 5.378 4.294 8.056 1.82 1.68 2.89 2.36 5.12 3.94 9.407 6.663 10.82 1.13 13.868-3.049 2.259-3.094 4.18-8.342 4.161-12.488-.014-3.83-.617-8.217-1.112-13.644-.512-5.62-.902-12.312-1.18-17.63-.633-12.198-.498-22.028-1.823-32.498-.582-4.602-2.43-11.325-2.962-14.36-.804-4.596-4.654-10.741-6.41-12.598-3.772-3.984-8.254-4.83-14.402-5.876-2.935-.499-6.99-.917-9.684-1.736-4.196-1.278-4.443-.93-4.561 0-.082.633-.541 1.584-.336 2.003.397.808 1.09 1.576 1.069 2.627-.04 2.264-1.207 3.708-.956 4.474.306.943.517 1.41.554 2.294.069 1.496-.448 2.753-.822 3.917-.924 2.863-2.333 4.585.067 7.768.779 1.034 2.382 3.995 2.45 6.344.083 3.047-3.01 5.487-3.92 6.589-1.357 1.64-2.693 3.555-3.76 1.424-.351-.698-.772-1.491-.378-3.405.39-1.915 2.277-1.917 2.29-3.14.027-2.212-1.72-4.013-2.204-5.431-.462-1.351.458-4.022.912-4.807.936-1.61 1.51-2.097.869-3.651-.474-1.15-2.032-2.476-2.826-4.251-.53-1.183-.956-2.575-.622-4.185.333-1.61.733-2.357.2-2.76-.752-.567-1.82-2.341-1.58-3.607.385-2.044 1.41-2.615.8-3.005-.62-.394-1.052-1.77-.935-3.294.096-1.236-.362-1.799-1.135-1.826z" fill="#FFF"/>
        <path d="M35.082 231.742h99.306c-.958-4.196-5.396-23.996-6.507-29.643-1.45-7.374-.902-9.811-2.073-15.253-1.364-6.321-.527-10.576-1.898-12.316-2.595-3.295-5.048-3.813-8.493-5.328-1.37-.604-2.526-1.922-4.98-3.308-5.621-3.18-36.35-6.105-45.662-4.108-1.002.216-3.431 2.974-3.845 3.321-4.04 3.39-15.662 13.837-20.618 19.667-1.518 1.788-1.918 10.708-1.777 15.39.191 6.353-2.557 27.406-3.453 31.578M77.332 141.426c-.336.356-1.681-1.805-1.192-2.293.304-.303 1.877.57 2.04.917.218.459-.58 1.09-.848 1.376" fill="#FFF"/>
        <path d="M107.452 161.91c-1.422-1.24-2.58-1.57-4.492-2.848-1.604-1.068-4-3.078-4.99-4.17-.52-.578-.252-.897-.671-1.418-.73-.91-1.714-1.495-1.959-2.15-.396-1.063 1.607-2.338 2.872-2.186 3.956.476 5.336.865 4.376.492-1.984-.768-3.976-2.665-3.593-3.552.653-1.508 4.419-.913 5.377-.867 6.228.304 14.84 4.535 16.204 4.912 2.427.674 3.326-.1 3.342-1.606.018-1.63-3.776-5.384-4.634-6.581-.97-1.352-1.846-3.395-1.123-4.107 1.954-1.927 4.968.565 5.752 1.062 3.287 2.083 4.773 5.251 5.235 6.282.172.382 1.197-.09 1.197-.09 7.067-9.46 13.658-18.432 13.658-18.432 0-1.12-.906-2.029-2.027-2.029l-51.892-2.132c-1.12 0-26.867 41.193-26.867 41.193a2.03 2.03 0 0 0 2.029 2.027l43.62.95 3.16-.116s-1.738-2.158-4.574-4.634" fill="#FFDBCC"/>
        <path d="M131.708 50.984h15.986c.725 0 1.312.587 1.312 1.311V67.49c0 .725-.587 1.313-1.312 1.313h-15.986a1.311 1.311 0 0 1-1.312-1.313V52.295a1.31 1.31 0 0 1 1.312-1.311" fill="#FFF"/>
        <path d="M83.147 79.741a9.563 9.563 0 0 1-1.746-.148c-.22-.041-5.42-1.056-10.241-5.654a.642.642 0 0 1 .885-.928c3.64 3.472 7.865 4.999 9.591 5.321 2.794.523 7.655-.455 12.218-3.82 4.203-3.1 9.491-9.229 10.826-20.832a.642.642 0 0 1 1.273.147c-1.387 12.06-6.93 18.466-11.336 21.716-4.045 2.982-8.365 4.198-11.47 4.198M66.704 67.457a.643.643 0 0 1-.576-.356c-2.049-4.135-2.993-8.94-2.8-14.282a.641.641 0 0 1 1.28.021v.024c-.182 5.127.715 9.725 2.668 13.668a.64.64 0 0 1-.572.925" fill="#31326F"/>
        <path d="M63.598 55.849a.62.62 0 0 1-.113-.01c-1.903-.34-4.244-1.796-4.59-6.811a.641.641 0 0 1 1.28-.089c.23 3.364 1.42 5.26 3.536 5.637a.641.641 0 0 1-.113 1.273M86.686 60.912a.642.642 0 0 1-.533-.996c.232-.347.587-.623.963-.915.484-.377.984-.765 1.002-1.16-.035-.092-.211-.3-.317-.427-.211-.25-.45-.534-.57-.868-.508-1.444-.21-3.264.781-4.749a.64.64 0 0 1 1.068.712c-.76 1.138-1.012 2.556-.639 3.61.04.115.207.311.34.47.289.343.619.734.619 1.234 0 1.027-.83 1.672-1.498 2.19-.278.217-.565.44-.68.614a.643.643 0 0 1-.536.285zM93.73 47.117a.64.64 0 0 1-.276-1.22c2.026-.955 4.947-1.474 6.912-.478a.641.641 0 0 1-.58 1.144c-1.57-.796-4.098-.302-5.783.493a.641.641 0 0 1-.274.061M93.081 18.047a.642.642 0 0 1-.637-.566c-.068-.58-.132-1.165-.196-1.752-.421-3.861-.858-7.854-2.95-11.116a.642.642 0 0 1 1.08-.692c2.254 3.516 2.706 7.66 3.143 11.67.064.582.128 1.162.197 1.739a.639.639 0 0 1-.637.717M83.288 46.126a.645.645 0 0 1-.255-.053c-1.777-.774-4.093-1.044-6.885-.8a.64.64 0 1 1-.108-1.278c3.006-.261 5.532.042 7.504.902a.641.641 0 0 1-.256 1.23M77.808 52.19c-1.386 0-2.901-.24-3.701-1.14a.64.64 0 1 1 .957-.853c.742.835 3.243.861 5.328.455a.64.64 0 0 1 .752.507.64.64 0 0 1-.506.751c-.394.077-1.557.28-2.83.28M96.937 52.722a12.21 12.21 0 0 1-2.337-.251.641.641 0 0 1 .248-1.258c1.89.372 3.323.293 4.256-.24a.643.643 0 0 1 .635 1.116c-.741.421-1.68.633-2.802.633M81.026 69.275a.642.642 0 0 0 .876.938c1.821-1.7 6.38-1.903 8.719-1.297a.64.64 0 0 0 .321-1.241c-1.325-.343-3.267-.467-5.153-.236-1.849.227-3.647.796-4.763 1.836zM76.326 96a.64.64 0 0 1-.64-.641c0-2.283-1.357-4.367-2.67-6.384l-.39-.599c-1.51-2.352-4.2-5.585-6.573-8.437-1.405-1.689-2.731-3.284-3.72-4.577a.641.641 0 1 1 1.018-.78c.974 1.274 2.293 2.859 3.687 4.537 2.397 2.88 5.114 6.146 6.669 8.565.126.195.253.393.384.592 1.349 2.072 2.877 4.42 2.877 7.083a.64.64 0 0 1-.642.64" fill="#31326F"/>
        <path d="M82.518 116.595c-.68 0-.954-.589-1.82-3.937a25.653 25.653 0 0 0-.178-.67c-.495-1.486-1.199-2.922-1.877-4.311-.688-1.413-1.403-2.872-1.914-4.408-.557-1.671-1.17-4.706-1.06-7.754a.642.642 0 1 1 1.284.047c-.105 2.877.47 5.731.992 7.3.487 1.458 1.149 2.815 1.851 4.252.698 1.425 1.418 2.9 1.94 4.468.036.112.096.336.204.756.055.212.144.561.252.95.025-.131.05-.26.08-.384.248-1.075.592-2.134.921-3.158.36-1.108.731-2.255.971-3.4.568-2.706.764-5.539.95-8.279.212-3.117.431-6.341 1.206-9.434.628-2.524 2.753-6.504 4.459-9.703a122.699 122.699 0 0 0 1.413-2.69.64.64 0 1 1 1.146.573c-.377.753-.887 1.71-1.426 2.72-1.586 2.971-3.759 7.041-4.35 9.411-.746 2.982-.96 6.149-1.169 9.211-.189 2.783-.385 5.66-.974 8.455-.255 1.21-.637 2.39-1.005 3.53-.323 1-.658 2.031-.891 3.052-.143.613-.248 1.357-.341 2.014l-.022.16c.004.032.016.066.024.1.054.206.14.553-.093.856a.717.717 0 0 1-.573.273zM67.201 98.238a.642.642 0 0 1-.378-1.16c1.322-.957 2.247-2.955 2.8-4.147.19-.41.341-.734.473-.945.588-.937 1.601-1.467 2.582-1.35.926.11 1.651.745 1.982 1.74a.644.644 0 0 1-.404.812.644.644 0 0 1-.812-.406c-.17-.513-.497-.823-.918-.873-.49-.06-1.018.24-1.342.757-.09.141-.232.448-.396.803-.606 1.308-1.62 3.494-3.212 4.648a.638.638 0 0 1-.375.12" fill="#31326F"/>
        <path d="M98.942 95.328h-.027c-1.29-.027-3.975-2.297-4.107-2.442-.36-.391-.71-.912-1.079-1.464-.744-1.111-1.589-2.372-2.51-2.529-.383-.066-.79.068-1.242.408-.3.225-.568.519-.848.83-.152.165-.307.335-.473.5a.639.639 0 1 1-.904-.905c.145-.149.286-.303.427-.458.31-.341.63-.694 1.03-.992.74-.555 1.488-.772 2.226-.647 1.464.25 2.472 1.753 3.36 3.08.34.51.664.99.957 1.31.315.312 1.6 1.27 2.476 1.75-.454-1.224-.747-2.547-.81-3.682-.17-3.072.13-6.13.42-9.087.229-2.33.464-4.74.464-7.121a.64.64 0 1 1 1.283 0c0 2.444-.238 4.885-.472 7.247-.285 2.908-.58 5.916-.414 8.89.062 1.099.368 2.407.84 3.589.01.023.053.09.081.132.13.203.524.821.03 1.316a.968.968 0 0 1-.708.275M.639 182.552a.639.639 0 0 1-.639-.64c0-3.82.309-7.744.61-11.54l.149-1.905c.215-2.789.317-5.638.417-8.393.162-4.47.33-9.096.977-13.632.457-3.194 1.131-6.413 1.785-9.527.955-4.547 1.942-9.25 2.254-13.926.744-11.159 2.352-23.806 12.085-32.654 5.09-4.625 11.717-6.629 18.127-8.566 3.884-1.175 7.898-2.388 11.459-4.168.376-.188.773-.38 1.182-.577.433-.21.878-.425 1.326-.648a.639.639 0 0 1 .858.287.64.64 0 0 1-.285.86c-.452.226-.903.444-1.341.656-.405.194-.796.383-1.168.569-3.657 1.829-7.725 3.059-11.661 4.247-6.273 1.897-12.76 3.858-17.633 8.29-9.382 8.526-10.943 20.88-11.67 31.787-.318 4.77-1.314 9.517-2.278 14.107-.65 3.093-1.32 6.293-1.77 9.443-.64 4.47-.805 9.06-.965 13.5-.1 2.766-.204 5.628-.421 8.444l-.15 1.908c-.298 3.77-.606 7.668-.606 11.438a.64.64 0 0 1-.642.64" fill="#31326F"/>
        <path d="M29.322 167.39a.64.64 0 0 1-.64-.641c0-4.136.486-8.296.954-12.32.599-5.133 1.219-10.44.816-15.68-.397-5.176-2.25-10.232-4.043-15.122-.93-2.533-1.89-5.152-2.631-7.75a.641.641 0 0 1 1.234-.352c.728 2.553 1.68 5.15 2.6 7.662 1.823 4.971 3.707 10.11 4.12 15.463.41 5.364-.215 10.736-.822 15.93-.466 3.985-.947 8.108-.947 12.169a.642.642 0 0 1-.641.641M140.961 195.478a.64.64 0 0 1-.035-1.28c2.006-.113 3.514-2.379 4.725-4.2.344-.516.669-1.006.974-1.392 5.325-6.734 4.496-13.793 3.535-21.966l-.098-.842c-.544-4.665-.976-9.58-1.323-15.027-.296-4.635-.448-9.377-.6-13.963-.053-1.613-.104-3.222-.162-4.827l-.056-1.559c-.24-6.747-.486-13.721-1.795-20.416-.216-1.105-.42-2.24-.62-3.337-1.218-6.698-2.476-13.625-6.76-19.092-4.37-5.574-10.682-6.471-17.367-7.42-3.575-.508-7.27-1.034-10.781-2.305a.642.642 0 0 1 .437-1.206c3.385 1.227 7.016 1.743 10.526 2.241 6.946.987 13.506 1.919 18.192 7.899 4.482 5.717 5.768 12.801 7.015 19.654.198 1.094.403 2.226.617 3.32 1.327 6.795 1.576 13.82 1.818 20.616l.054 1.558c.06 1.607.112 3.218.163 4.832.15 4.575.303 9.308.599 13.924.344 5.422.776 10.316 1.318 14.96l.096.84c.955 8.105 1.855 15.761-3.803 22.913-.27.343-.582.811-.91 1.306-1.298 1.949-3.077 4.619-5.722 4.77h-.037" fill="#31326F"/>
        <path d="M140.12 195.584c-1.543 0-3.024-.82-4.346-1.55-.318-.176-.62-.343-.907-.49-3.912-1.997-6.663-4.342-8.655-7.384-1.006-1.538-1.681-3.258-2.334-4.92-.658-1.677-1.28-3.264-2.216-4.694a.64.64 0 1 1 1.072-.703c1.01 1.543 1.686 3.264 2.34 4.93.657 1.675 1.278 3.259 2.21 4.686 1.866 2.847 4.461 5.051 8.167 6.943.307.156.616.328.944.51 1.29.714 2.755 1.522 4.06 1.37a.641.641 0 0 1 .15 1.273c-.162.02-.325.029-.485.029" fill="#31326F"/>
        <path d="M129.12 187.174a.643.643 0 0 1-.074-1.278c6.789-.794 11.096-3.974 13.962-10.318.473-1.05 1.916-4.244 1.324-6.292-.108-.374-.58-.873-.995-1.31-.357-.376-.726-.766-.96-1.162a48.329 48.329 0 0 1-.278-.475c-.784-1.344-1.759-3.016-3.013-3.745-.787-.46-1.429-.743-1.866-.888.12.152.2.27.25.403.475 1.256.398 3.224.077 4.518-1.181 4.778-6.051 7.919-10.354 8.91-.323.076-.665.167-1.029.261-1.45.386-3.094.821-4.585.51a.64.64 0 1 1 .26-1.255c1.194.248 2.684-.146 3.997-.493.375-.1.727-.192 1.07-.272 3.92-.904 8.345-3.72 9.398-7.968.267-1.08.33-2.762-.023-3.73a3.71 3.71 0 0 0-.2-.254c-.32-.39-.622-.757-.533-1.192a.998.998 0 0 1 .583-.73c.662-.296 1.873.066 3.6 1.07 1.549.903 2.616 2.735 3.473 4.207.095.163.186.319.277.47.16.27.479.607.786.932.542.57 1.102 1.163 1.299 1.838.648 2.242-.485 5.17-1.39 7.176-3.07 6.8-7.692 10.211-14.983 11.063a.55.55 0 0 1-.073.004" fill="#31326F"/>
        <path d="M147.134 165.208a.636.636 0 0 1-.397-.138c-1.387-1.096-3.126-1.512-5.478-1.307a.64.64 0 1 1-.112-1.277c2.699-.233 4.726.268 6.385 1.58.279.219.325.622.104.899a.639.639 0 0 1-.502.243M129.553 124.091a.64.64 0 0 1-.603-.86c.3-.833.605-1.75.928-2.717 1.184-3.559 2.523-7.592 4.608-10.228a.64.64 0 1 1 1.006.795c-1.945 2.46-3.248 6.378-4.396 9.836-.327.977-.632 1.9-.94 2.752a.643.643 0 0 1-.603.422M4.277 179.19a.64.64 0 0 1-.573-.926c.803-1.608 2.204-2.576 3.556-3.515.28-.194.559-.39.835-.59 4.71-3.425 9.315-4.72 15.22-5.705a58.471 58.471 0 0 0 13.513-3.94.64.64 0 1 1 .503 1.177 59.546 59.546 0 0 1-13.804 4.026c-5.722.955-10.174 2.205-14.678 5.48-.284.206-.572.406-.859.605-1.277.886-2.483 1.723-3.14 3.035a.642.642 0 0 1-.573.353M46.984 160.598a.642.642 0 0 1-.362-1.173c.136-.092.327-.21.554-.35 1.035-.638 2.96-1.827 3.695-3.254a.64.64 0 1 1 1.14.586c-.897 1.747-3.021 3.055-4.162 3.76-.207.129-.38.233-.505.32a.638.638 0 0 1-.36.111M51.63 174.149a.647.647 0 0 1-.442-.175.642.642 0 0 1-.023-.907 96.584 96.584 0 0 1 1.487-1.531c.788-.787 1.656-1.486 2.495-2.163.839-.675 1.63-1.315 2.345-2.032a.641.641 0 1 1 .908.907c-.766.765-1.62 1.456-2.449 2.123-.812.655-1.653 1.333-2.391 2.072-.472.472-.95.965-1.465 1.506a.633.633 0 0 1-.465.2M7.148 199.968c-1.411 0-3.032-.13-3.97-1.067-.873-.874-1.228-2.616-1.485-3.888-.032-.147-.06-.285-.085-.41-.572-2.664-1.445-8.549-1.602-12.67a.642.642 0 0 1 .616-.666.644.644 0 0 1 .665.618c.14 3.656.941 9.496 1.575 12.45l.087.423c.2.984.535 2.634 1.137 3.237.742.74 2.624.704 3.871.68.224-.003.434-.008.623-.008 4.359 0 8.497-.897 12.645-2.74a81.09 81.09 0 0 0 14.192-8.111c.69-.491 1.433-.978 2.151-1.445 1.57-1.024 3.192-2.081 4.438-3.325a95.57 95.57 0 0 0 3.043-3.212.641.641 0 0 1 .948.862 94.593 94.593 0 0 1-3.084 3.254c-1.34 1.34-3.02 2.436-4.643 3.495-.74.483-1.441.939-2.107 1.414a82.367 82.367 0 0 1-14.417 8.239c-4.316 1.92-8.623 2.85-13.166 2.85-.183 0-.382.006-.598.01-.263.004-.545.01-.834.01M59.237 167.362a.642.642 0 0 1-.384-1.155c3.395-2.548 4.952-6.9 4.162-11.642a.64.64 0 1 1 1.265-.211c.87 5.224-.871 10.04-4.659 12.88a.644.644 0 0 1-.384.128" fill="#31326F"/>
        <path d="M51.493 156.606a.64.64 0 0 1-.486-1.06c2.19-2.554 3.377-5.4 4.634-8.413.77-1.843 1.565-3.75 2.61-5.576 1.087-1.901 2.47-3.274 3.937-4.725l.576-.573c.552-.553.977-1.23 1.426-1.945.465-.736.942-1.5 1.586-2.141.42-.423 1.113-.821 1.793-.674.448.098.799.418.98.9 1.21 3.228-1.044 6.052-2.855 8.32-.397.5-.775.972-1.096 1.422-1.48 2.073-1.6 4.419-1.6 7.046a.642.642 0 1 1-1.283 0c0-2.747.14-5.413 1.84-7.792.341-.477.727-.961 1.137-1.475 1.692-2.12 3.612-4.525 2.656-7.07a.264.264 0 0 0-.054-.101c-.069-.018-.357.075-.613.33-.54.54-.96 1.209-1.404 1.916-.467.744-.952 1.515-1.607 2.171-.197.196-.39.386-.579.576-1.464 1.448-2.728 2.701-3.728 4.45-1.002 1.758-1.783 3.627-2.538 5.435-1.24 2.973-2.525 6.048-4.845 8.755a.643.643 0 0 1-.487.224" fill="#31326F"/>
        <path d="M74.49 145.518c-1.394 0-3.186-1.656-3.207-1.675-.397-.38-.682-.789-.957-1.182-.125-.178-.248-.354-.384-.531-.195-.253-.411-.506-.637-.772-.693-.81-1.408-1.65-1.736-2.713a.643.643 0 0 1 1.227-.378c.248.811.876 1.547 1.485 2.26.226.265.463.542.677.82.15.195.286.39.418.578.25.358.49.699.798.993.594.573 2.013 1.45 2.373 1.314-.003-.003.033-.066.046-.23.034-.428-.411-1.156-.736-1.687-.174-.286-.34-.557-.456-.805-.185-.392-.376-.907-.597-1.5-1.024-2.764-2.17-5.416-3.897-4.887a.641.641 0 1 1-.375-1.227c3.03-.928 4.501 3.04 5.476 5.669.21.566.392 1.057.553 1.4.087.185.232.425.39.681.465.757.99 1.616.919 2.461-.075.895-.574 1.215-.867 1.323-.16.061-.333.088-.512.088" fill="#31326F"/>
        <path d="M76.856 141.774a.634.634 0 0 1-.463-.2c-.886-.93-1.206-2.176-1.515-3.38-.254-.99-.494-1.922-1.02-2.592-.25-.324-1.185-.36-1.802-.386a7.358 7.358 0 0 1-.92-.07.64.64 0 0 1 .212-1.264c.19.03.466.041.759.054.953.038 2.144.086 2.76.875.693.882.976 1.99 1.253 3.064.28 1.095.545 2.127 1.201 2.816a.64.64 0 0 1-.465 1.083" fill="#31326F"/>
        <path d="M79.45 137.55a.608.608 0 0 1-.286-.067c-.728-.366-1.307-.9-1.868-1.417-1.138-1.048-1.903-1.67-3.248-1.258a.641.641 0 0 1-.374-1.226c2.114-.646 3.377.516 4.49 1.541.519.479 1.01.931 1.575 1.215a.64.64 0 0 1-.288 1.212M78.134 140.523a.606.606 0 0 1-.246-.05c-.781-.326-1.432-.702-1.94-1.115a.645.645 0 0 1-.09-.904.644.644 0 0 1 .903-.09c.411.337.955.647 1.62.927a.641.641 0 0 1-.247 1.232M67.268 145.293a.64.64 0 0 1-.622-.795c.058-.23.112-.458.165-.688.3-1.293.613-2.63 1.453-3.781a.641.641 0 1 1 1.035.755c-.687.94-.955 2.094-1.239 3.315-.056.237-.11.472-.168.707a.642.642 0 0 1-.624.487M69.996 145.33a.641.641 0 0 1-.614-.826c.042-.138.078-.275.115-.406.159-.573.325-1.165.722-1.746a.64.64 0 0 1 1.06.722c-.28.408-.404.85-.547 1.366l-.121.434a.644.644 0 0 1-.615.456M52.408 174.834a3.06 3.06 0 0 1-1.802-.6c-.985-.706-1.492-1.832-1.938-2.826-.104-.23-.205-.46-.31-.674-1.556-3.179-2.29-6.53-2.125-9.69.081-1.52.267-5.074 2.891-5.329a.64.64 0 1 1 .123 1.277c-1.343.13-1.629 2.155-1.733 4.117-.155 2.945.535 6.078 1.996 9.06.111.23.22.47.328.714.4.888.811 1.805 1.516 2.309.848.61 1.676.298 2.093.056.927-.534 1.533-1.611 1.44-2.565a.643.643 0 0 1 .576-.7.643.643 0 0 1 .7.577c.14 1.453-.713 3.014-2.076 3.8-.548.315-1.119.474-1.68.474" fill="#31326F"/>
        <path d="M48.71 182.202c-.05 0-.1-.004-.151-.008-1.83-.188-3.57-2.2-4.839-3.67-.214-.249-.41-.476-.583-.666-2.886-3.162-4.674-6.455-5.625-10.364-.036-.153-.079-.32-.124-.494-.363-1.435-.865-3.4-.327-4.802.342-.883 1.533-1.452 2.49-1.91.237-.112.46-.22.61-.304.667-.378 1.394-.742 2.096-1.094 1.466-.736 2.982-1.5 4.155-2.458a.642.642 0 0 1 .812.994c-1.283 1.046-2.863 1.841-4.392 2.61-.72.36-1.4.702-2.039 1.063-.19.107-.42.218-.687.346-.59.281-1.69.808-1.847 1.214-.392 1.02.067 2.829.372 4.026.046.179.09.349.128.507.908 3.74 2.551 6.765 5.325 9.803.18.197.384.432.607.69 1.064 1.233 2.674 3.099 3.997 3.233h.013c.243.002.638-.641.876-1.028.227-.368.44-.716.703-.964.374-.353.809-.726 1.27-1.118 1.438-1.229 3.23-2.755 3.656-4.275.188-.667.083-1.487-.018-2.277-.03-.242-.062-.478-.083-.71a.641.641 0 0 1 1.276-.122c.021.216.05.44.08.669.11.877.239 1.867-.02 2.787-.534 1.894-2.487 3.563-4.06 4.902-.447.384-.87.746-1.219 1.076-.14.13-.32.422-.493.704-.428.697-1.007 1.64-1.96 1.64M136.913 163.258a.638.638 0 0 1-.46-.194c-1.111-1.14-1.495-3.672-1.476-4.998.016-1.236.248-2.421.474-3.565.286-1.461.557-2.84.401-4.283-.046-.434-.118-.997-.2-1.64-.401-3.192-1.01-8.016-.406-10.117a.64.64 0 0 1 1.232.354c-.531 1.847.082 6.702.446 9.603.084.654.156 1.222.204 1.662.176 1.638-.128 3.178-.42 4.667-.224 1.14-.435 2.215-.45 3.335-.017 1.217.362 3.315 1.116 4.088a.642.642 0 0 1-.46 1.088M122.598 150.846a.641.641 0 0 1-.117-1.27c.637-.118.765-.408.807-.502.21-.48-.02-1.388-.572-2.258-.336-.533-1.043-1.245-1.793-2-2.056-2.077-4.618-4.662-3.322-7.086.738-1.383 2.875-1.373 4.024-.76 1.877 1.001 4.578 2.62 6.367 5.092.467.647.913 1.423 1.387 2.247 1.096 1.905 2.337 4.065 4.025 4.789a.638.638 0 0 1 .338.84.639.639 0 0 1-.842.337c-2.081-.89-3.436-3.248-4.633-5.328-.455-.792-.887-1.54-1.314-2.133-1.633-2.257-4.168-3.77-5.931-4.713-.634-.34-1.978-.35-2.29.233-.85 1.59 1.341 3.802 3.103 5.578.833.842 1.553 1.568 1.963 2.218.302.476 1.242 2.13.664 3.457-.2.458-.667 1.048-1.746 1.25a.601.601 0 0 1-.118.01M118.748 157.768a.637.637 0 0 1-.497-.237c-.423-.518-3.757-2.069-5.013-2.651-.538-.251-.962-.448-1.192-.568-1.851-.949-3.786-1.755-5.654-2.534-1.152-.48-2.343-.976-3.517-1.508l-.386-.172c-1.288-.57-2.89-1.282-3.731-2.496-.598-.863-.448-1.51-.22-1.903 1.007-1.697 5.43-1.352 5.471-1.347 6.26.645 11.637 2.891 17.045 5.338a.64.64 0 1 1-.528 1.168c-5.309-2.4-10.578-4.605-16.648-5.23-1.195-.126-3.866.102-4.235.724-.075.131.073.382.17.52.635.918 2.054 1.549 3.195 2.054l.393.176c1.157.522 2.34 1.015 3.483 1.492 1.895.788 3.85 1.604 5.748 2.579.208.105.622.299 1.145.542 3.154 1.466 4.957 2.38 5.467 3.008a.642.642 0 0 1-.09.903.645.645 0 0 1-.406.142" fill="#31326F"/>
        <path d="M115.513 162.81a.638.638 0 0 1-.398-.138c-.546-.432-1.71-.944-2.738-1.397-.66-.291-1.283-.566-1.718-.806-2.407-1.341-4.95-2.517-7.407-3.658-2.033-.942-4.136-1.917-6.177-2.985-1.199-.63-2.346-1.919-2.223-3.164.048-.486.35-1.368 1.821-1.798 1.298-.38 2.88.05 4.154.392.174.046.342.093.502.134a90.15 90.15 0 0 1 4.33 1.245.64.64 0 1 1-.38 1.224c-1.647-.51-3.004-.9-4.27-1.227-.165-.042-.34-.09-.518-.14-1.117-.3-2.506-.676-3.458-.398-.392.116-.867.33-.905.696-.055.552.667 1.439 1.542 1.9 2.013 1.056 4.1 2.024 6.122 2.958 2.478 1.149 5.043 2.338 7.49 3.7.382.212.98.474 1.614.754 1.152.508 2.34 1.03 3.014 1.564a.64.64 0 0 1-.397 1.144" fill="#31326F"/>
        <path d="M124.58 175.91a.643.643 0 0 1-.544-.3c-1.516-2.428-3.518-3.328-5.835-4.372-1.091-.49-2.22-.998-3.366-1.699-1.78-1.088-3.253-2.589-4.679-4.043-1.44-1.469-2.932-2.99-4.716-4.048-2.373-1.408-4.83-2.862-6.852-4.963a8.282 8.282 0 0 0-.21-.216c-.817-.823-1.55-1.627-1.583-2.451a.642.642 0 0 1 1.281-.052c.016.394.885 1.27 1.212 1.6.084.085.16.16.225.23 1.903 1.975 4.28 3.385 6.58 4.748 1.93 1.144 3.48 2.725 4.98 4.254 1.434 1.461 2.789 2.844 4.429 3.847 1.078.659 2.168 1.15 3.224 1.625 2.405 1.08 4.675 2.101 6.398 4.86a.642.642 0 0 1-.544.98M53.075 79.082a.65.65 0 0 1-.335-.095c-1.383-.846-2.319-1.868-3.316-3.02-4.9-5.668-2.893-11.855-.956-17.84.246-.754.5-1.535.733-2.301.47-1.532.666-3.2.855-4.816.097-.82.196-1.668.331-2.493.36-2.201.484-4.577.605-6.875.164-3.142.334-6.392 1.098-9.368 2-7.786 4.65-14.333 7.882-19.457 4.429-7.026 9.85-11.163 16.112-12.3 3.16-.573 6.452-.675 9.034-.28.83.128 1.614.466 2.373.793.629.272 1.224.528 1.82.662a.642.642 0 0 1-.276 1.251c-.717-.159-1.397-.452-2.053-.736-.714-.308-1.39-.6-2.06-.702-2.446-.375-5.583-.275-8.609.274-5.894 1.07-11.028 5.013-15.256 11.72-3.161 5.013-5.759 11.437-7.725 19.094-.732 2.852-.9 6.037-1.06 9.117-.123 2.332-.25 4.743-.62 7.013-.13.797-.228 1.63-.322 2.437-.196 1.671-.4 3.4-.903 5.042-.237.776-.492 1.56-.738 2.32-1.914 5.906-3.722 11.485.706 16.607.924 1.069 1.789 2.015 3.015 2.765a.64.64 0 0 1-.335 1.188M84.384 174.782c-.036 1.037-.07 2.108-.048 3.14.104 4.292 2.844 34.865 4.192 43.638h1.297c-1.315-8.334-4.117-39.872-4.206-43.669-.024-.995.01-2 .046-3.065.072-2.117.144-4.308-.272-6.388a.64.64 0 0 0-.753-.5.64.64 0 0 0-.504.753c.387 1.931.316 4.047.248 6.091" fill="#31326F"/>
        <path d="M111.275 167.355h-.015l-2.408-.053-43.62-.952a2.668 2.668 0 0 1-2.654-2.667.64.64 0 0 1 .098-.34c.063-.103 6.51-10.42 13.013-20.602 3.82-5.984 6.914-10.75 9.19-14.17 4.476-6.723 4.75-6.723 5.205-6.723h.026l51.88 2.133a2.673 2.673 0 0 1 2.654 2.67.62.62 0 0 1-.126.378c-.064.09-6.672 9.085-13.658 18.437a.64.64 0 1 1-1.027-.765 3346.48 3346.48 0 0 0 13.515-18.243 1.387 1.387 0 0 0-1.372-1.194h-.026l-51.672-2.125c-1.938 1.975-16.696 25.173-26.408 40.712.083.687.669 1.218 1.376 1.218l46.043 1.005a.64.64 0 0 1-.014 1.281M63.654 48.333c-1.552 0-3.107-.187-4.635-.57a.643.643 0 0 1-.468-.777.643.643 0 0 1 .779-.466c5.24 1.309 10.826.171 15.332-3.124 2.043-1.497 3.765-3.536 5.429-5.509l.366-.432c.575-.68 1.183-1.48 1.826-2.329 2.702-3.561 6.067-7.994 10.545-7.994a.64.64 0 0 1 0 1.282c-3.841 0-6.993 4.152-9.523 7.488-.654.862-1.273 1.676-1.87 2.382l-.365.43c-1.712 2.03-3.483 4.13-5.653 5.716-3.5 2.562-7.62 3.903-11.763 3.903" fill="#31326F"/>
        <path d="M82.835 132.438a.642.642 0 0 1-.642-.64c0-2.224-.1-5.102-.2-7.886-.097-2.802-.2-5.7-.2-7.958a.64.64 0 1 1 1.28 0c0 2.236.104 5.123.202 7.913.099 2.794.201 5.683.201 7.931 0 .352-.286.64-.641.64M97.2 53.672c-.028 0-.056 0-.084-.003-.576-.04-.958-.467-1.198-.783a.64.64 0 1 1 1.026-.77c.144.191.228.253.26.27a.769.769 0 0 0 .23-.178.64.64 0 1 1 .906.907c-.37.37-.752.557-1.14.557M78.188 53.055c-.212 0-.427-.032-.633-.11a1.393 1.393 0 0 1-.816-.8.642.642 0 0 1 1.19-.476c.015.037.032.058.082.077.155.059.437.02.656-.089.317-.157.7-.029.86.287a.644.644 0 0 1-.287.86c-.279.14-.66.251-1.052.251M36.628 164.789a.64.64 0 0 1-.64-.642c0-3.41-1.442-6.74-2.836-9.965-1.023-2.363-2.079-4.808-2.576-7.29a.64.64 0 1 1 1.258-.251c.469 2.348 1.454 4.623 2.494 7.033 1.446 3.342 2.94 6.798 2.94 10.473a.64.64 0 0 1-.64.642M36.58 221.56c.481-1.813 1.14-5.71 1.932-14.373.747-8.163 1.231-16.513 1.308-20.224a.64.64 0 0 0-.629-.653h-.012a.643.643 0 0 0-.641.63c-.077 3.658-.554 11.92-1.292 20.02-.882 9.666-1.596 13.264-1.993 14.6h1.327M131.323 221.56h1.347c-1.763-4.691-5.7-30.637-6.266-35.166a.64.64 0 1 0-1.272.158c.252 2 4.07 28.454 6.19 35.008M110.308 74.346c-.353 0-.704-.02-1.046-.04-.544-.03-1.058-.058-1.576-.01a.642.642 0 0 1-.118-1.277c.614-.057 1.2-.024 1.763.007.912.052 1.773.1 2.65-.234 1.92-.73 3.3-3.286 3.815-5.496.677-2.891-.062-6.246-.776-9.489-.385-1.748-.782-3.554-.939-5.236a763.865 763.865 0 0 1-.357-4.022c-.944-10.91-1.836-21.214-7.473-31.36-3.039-5.471-7.143-11.36-14.563-13.558a.642.642 0 0 1-.436-.798.644.644 0 0 1 .797-.432c7.864 2.33 12.16 8.468 15.322 14.165 5.77 10.387 6.675 20.822 7.632 31.872.115 1.325.23 2.663.355 4.015.149 1.601.522 3.29.914 5.079.745 3.382 1.515 6.88.774 10.055-.55 2.354-2.086 5.444-4.61 6.403-.744.284-1.448.356-2.128.356M66.886 98.742a.64.64 0 0 1-.635-.559c-.653-5.013-2.715-9.085-4.895-13.397-.775-1.53-1.576-3.112-2.32-4.756a.641.641 0 1 1 1.168-.529c.731 1.62 1.526 3.189 2.295 4.706 2.233 4.412 4.342 8.58 5.024 13.811a.644.644 0 0 1-.637.724M63.108 73.323a.642.642 0 0 1-.454-1.095c1.794-1.795 1.507-5.433 1.276-8.356-.073-.934-.143-1.816-.143-2.58a.641.641 0 0 1 1.281 0c0 .713.068 1.571.14 2.479.252 3.186.566 7.15-1.647 9.365a.646.646 0 0 1-.453.187" fill="#31326F"/>
        <path d="M56.11 82.886a.64.64 0 0 1-.636-.72c.33-2.66 2.498-4.476 4.41-6.079.71-.596 1.384-1.159 1.944-1.74a.642.642 0 1 1 .923.89c-.607.63-1.306 1.215-2.044 1.833-1.816 1.521-3.693 3.095-3.96 5.254a.644.644 0 0 1-.638.562M55.578 87.16a.645.645 0 0 1-.587-.382c-.448-1.012-1.316-1.724-2.234-2.479-1.386-1.139-2.957-2.43-2.654-4.857a.64.64 0 1 1 1.27.159c-.214 1.726.851 2.6 2.198 3.707.994.817 2.023 1.661 2.592 2.952a.64.64 0 0 1-.585.9" fill="#31326F"/>
        <path d="M56.353 91.024a.642.642 0 0 1-.637-.72c.199-1.601 1.124-2.98 2.016-4.313.682-1.017 1.326-1.978 1.646-2.998.258-.826-.048-1.49-.405-2.256-.314-.678-.638-1.378-.536-2.2a.64.64 0 1 1 1.273.16c-.058.457.166.94.426 1.5.388.837.872 1.881.464 3.179-.374 1.197-1.1 2.28-1.803 3.328-.846 1.265-1.647 2.46-1.809 3.759a.639.639 0 0 1-.635.561" fill="#31326F"/>
        <path d="M56.158 93.511a.64.64 0 0 1-.558-.32c-.448-.784-1.147-1.463-1.892-2.183-1.239-1.2-2.523-2.443-2.771-4.333-.109-.812-.304-2.297.661-3.05a.64.64 0 1 1 .786 1.012c-.385.301-.246 1.35-.18 1.856.195 1.462 1.264 2.498 2.398 3.595.774.75 1.573 1.524 2.112 2.466a.638.638 0 0 1-.556.957M57.902 96.013a.64.64 0 0 1-.637-.72c.182-1.454.828-2.674 1.455-3.855.486-.917.948-1.784 1.2-2.752.201-.77.038-1.562-.134-2.402a14.643 14.643 0 0 1-.207-1.167.639.639 0 0 1 .56-.713.64.64 0 0 1 .712.558c.042.347.116.695.191 1.064.195.946.396 1.925.119 2.986-.292 1.11-.808 2.086-1.309 3.026-.599 1.127-1.162 2.192-1.314 3.413a.64.64 0 0 1-.636.562" fill="#31326F"/>
        <path d="M56.805 98.39a.651.651 0 0 1-.276-.063c-3.135-1.5-4.473-4.293-3.975-8.302a.64.64 0 0 1 1.272.158c-.435 3.498.6 5.718 3.257 6.987a.642.642 0 0 1-.278 1.22M59.562 99.189a.644.644 0 0 1-.599-.872c.126-.322.248-.627.365-.92.967-2.41 1.497-3.738.176-6.378a.643.643 0 0 1 .288-.86.64.64 0 0 1 .86.286c1.58 3.155.861 4.947-.134 7.428-.115.289-.236.59-.357.906a.641.641 0 0 1-.6.41M59.124 118.32a.643.643 0 0 1-.32-1.198c1.424-.813 1.186-2.61 1.08-3.141-.225-1.115-.929-1.728-1.748-2.439-.657-.57-1.336-1.16-1.83-2.057-1.43-2.611-.87-4.952-.327-7.216.195-.815.397-1.657.502-2.506a.64.64 0 1 1 1.273.158c-.115.92-.326 1.798-.53 2.647-.529 2.213-.986 4.123.207 6.3.383.695.948 1.188 1.546 1.706.87.754 1.854 1.612 2.164 3.154.392 1.957-.26 3.683-1.7 4.507a.654.654 0 0 1-.317.085" fill="#31326F"/>
        <path d="M62.09 121.086a.643.643 0 0 1-.636-.72c.196-1.57 1.06-2.678 1.894-3.752.533-.68 1.036-1.326 1.373-2.081.407-.915.398-2.472-.027-4.274-.473-2.003-1.285-3.64-2.71-5.472-.18-.229-.394-.472-.62-.73-.91-1.033-2.045-2.323-1.847-3.916a.638.638 0 0 1 .716-.556c.35.044.601.363.555.714-.126 1.021.72 1.982 1.538 2.91.24.274.466.532.67.79 1.526 1.96 2.435 3.8 2.946 5.966.287 1.216.66 3.493-.051 5.09-.4.9-.975 1.636-1.531 2.348-.762.98-1.48 1.903-1.633 3.122a.643.643 0 0 1-.637.561M105.086 83.508a.64.64 0 0 1-.637-.57c-.166-1.5-.273-2.155-1.265-3.344-.306-.369-.754-.704-1.23-1.06-.786-.59-1.6-1.2-2.007-2.127-.86-1.965-.131-4.388.4-6.156l.008-.028a.64.64 0 1 1 1.227.369l-.008.028c-.5 1.666-1.123 3.739-.453 5.273.272.617.92 1.102 1.603 1.617.514.383 1.042.78 1.447 1.264 1.219 1.463 1.37 2.385 1.552 4.022a.642.642 0 0 1-.637.712M106.06 85.242a.642.642 0 0 1-.608-.844c.44-1.318 1.148-2.443 1.834-3.53 1.272-2.02 2.371-3.764 1.328-6.2a.639.639 0 0 1 .338-.84.64.64 0 0 1 .841.336c1.307 3.054-.081 5.257-1.422 7.387-.645 1.023-1.31 2.08-1.703 3.253a.64.64 0 0 1-.608.438" fill="#31326F"/>
        <path d="M105.304 89.36a.642.642 0 0 1-.644-.642c0-1.478-.972-2.374-2.1-3.412-.884-.81-1.794-1.649-2.292-2.841-.417-1.003-.6-3.429.356-4.385a.64.64 0 1 1 .907.908c-.411.411-.403 2.204-.08 2.983.39.933 1.16 1.642 1.976 2.392 1.18 1.084 2.515 2.314 2.515 4.355a.64.64 0 0 1-.638.641M106.385 91.635a.642.642 0 0 1-.55-.97c.259-.43.536-.865.832-1.326 1.752-2.74 3.736-5.844 1.894-8.608a.64.64 0 0 1 1.066-.711c2.309 3.46-.013 7.093-1.882 10.01-.288.453-.563.881-.811 1.293a.636.636 0 0 1-.549.312" fill="#31326F"/>
        <path d="M105.41 96.294a.642.642 0 0 1-.6-.417c-.388-1.04-1.002-1.903-1.65-2.819-.51-.721-1.037-1.465-1.464-2.32-.754-1.507-.808-3.588-.157-6.185a.64.64 0 1 1 1.243.312c-.565 2.259-.544 4.092.06 5.3.383.766.862 1.44 1.366 2.152.665.94 1.353 1.916 1.801 3.11a.639.639 0 0 1-.6.867M107.252 96.835a.64.64 0 0 1-.538-.989c1.982-3.064 3.09-5.142 1.793-8.176a.639.639 0 1 1 1.176-.504c1.665 3.88-.064 6.55-1.893 9.377a.639.639 0 0 1-.538.292M103.894 111.354a.64.64 0 0 1-.203-1.25c.739-.246 1.189-.568 1.339-.96.29-.765-.442-2.035-1.086-3.158-.588-1.023-1.144-1.988-1.23-2.906-.209-2.23.48-3.543 1.273-5.063.136-.258.275-.526.417-.809a.64.64 0 1 1 1.146.574c-.146.292-.29.564-.427.83-.759 1.449-1.306 2.495-1.133 4.35.06.638.573 1.526 1.066 2.385.824 1.437 1.678 2.92 1.172 4.251-.297.781-.993 1.344-2.13 1.724a.641.641 0 0 1-.204.032" fill="#31326F"/>
        <path d="M106.712 117.205a.642.642 0 0 1-.535-.285c-.766-1.149.087-2.304.453-2.797.333-.451.78-.96 1.258-1.5 1.17-1.325 2.627-2.977 2.734-4.24.214-2.498-.762-4.48-1.87-6.458-.141-.251-.327-.52-.522-.806-.725-1.051-1.622-2.358-.9-3.804a.642.642 0 1 1 1.147.575c-.36.714.087 1.454.809 2.501.203.298.414.605.582.908 1.164 2.074 2.277 4.336 2.034 7.192-.146 1.687-1.691 3.437-3.053 4.98-.457.52-.89 1.009-1.187 1.415-.506.68-.616 1.028-.42 1.322a.64.64 0 0 1-.53.997" fill="#31326F"/>
        <path d="M104.003 116.989a.643.643 0 0 1-.642-.643c0-1.816.403-2.834 1.595-4.028a.643.643 0 0 1 .908 0 .638.638 0 0 1 0 .906c-.948.947-1.22 1.65-1.22 3.122a.643.643 0 0 1-.641.643M105.692 36.334a.634.634 0 0 1-.284-.067c-1.517-.758-2.687-1.901-3.818-3.007-1.5-1.464-2.917-2.848-4.976-3.165a.644.644 0 0 1-.538-.73.645.645 0 0 1 .733-.538c2.467.38 4.1 1.974 5.677 3.516 1.06 1.037 2.158 2.108 3.493 2.777a.64.64 0 0 1-.287 1.214M109.782 56.67a.642.642 0 0 1-.616-.816c.94-3.3-1.06-5.828-3.18-8.503-.985-1.243-2.002-2.527-2.684-3.888-.646-1.291-.875-2.703-1.098-4.068-.062-.371-.121-.741-.192-1.104a.641.641 0 1 1 1.262-.238c.071.375.132.754.194 1.135.208 1.27.421 2.585.981 3.702.62 1.241 1.555 2.419 2.54 3.666 2.228 2.81 4.532 5.716 3.41 9.649a.642.642 0 0 1-.617.465M63.49 51.272a.641.641 0 0 1-.61-.438c-.127-.386-.56-.635-1.021-.899-.09-.052-.18-.103-.264-.154a.642.642 0 1 1 .659-1.1l.242.142c.588.337 1.319.757 1.6 1.605a.641.641 0 0 1-.606.844M131.708 51.625a.673.673 0 0 0-.672.67V67.49c0 .371.303.672.672.672h15.986a.67.67 0 0 0 .67-.672V52.296a.67.67 0 0 0-.67-.671h-15.986zm15.986 17.817h-15.986a1.956 1.956 0 0 1-1.953-1.953V52.296c0-1.078.877-1.954 1.953-1.954h15.986c1.077 0 1.954.876 1.954 1.954v15.193a1.956 1.956 0 0 1-1.954 1.953z" fill="#31326F"/>
        <path d="M139.817 65.063c-1.93 0-3.344-2.036-4.74-4.307-.145-.232-.293-.473-.36-.57-.106-.148-.25-.318-.4-.498-.421-.499-.943-1.121-1.23-1.953a1.78 1.78 0 0 1 2.786-1.98 1.837 1.837 0 0 1 1.802-.088c.784.38 1.262 1.058 1.61 1.75l.083.062.13.098c.5-.996.98-2.017 1.447-3.014l.378-.803c1.227-2.593 2.597-5.09 3.923-7.504.81-1.478 1.648-3.005 2.44-4.533.21-.405.411-.83.626-1.281.694-1.468 1.481-3.133 2.803-4.44.147-.145.309-.26.486-.347.08-.14.163-.279.248-.416a1.779 1.779 0 0 1 2.447-.592 1.784 1.784 0 0 1 .593 2.448c-.52.85-.974 1.74-1.39 2.663-.195.509-.394.966-.608 1.422-.397.972-.771 1.976-1.154 3.003-.653 1.75-1.325 3.559-2.149 5.282-.174.362-.345.725-.515 1.088-1.024 2.163-2.067 4.373-3.445 6.419-.304.816-.62 1.631-.955 2.429-.78 1.863-.9 2.054-1.965 3.547l-.307.434c-.315.442-1.149 1.62-2.46 1.679-.04.002-.08.002-.124.002" fill="#FFDBCC"/>
    </g>
</svg>
