<svg width="161" height="230" viewBox="0 0 161 230" xmlns="http://www.w3.org/2000/svg">
    <g fill="none" fill-rule="evenodd">
        <path d="M19.986 225.69c2.871 4.512 10.818 3.589 10.818 3.589S146.03 228.272 147.007 222c1.986-12.757 5.735-38.902 7.528-50.628.64-4.2-1.03-5.498-.208-8.037.82-2.538 5.574-22.655 5.655-25.528.326-11.745-.643-13.651-5.644-24.59-1.512-3.309-2.812-4.74-5.058-7.587-.994-1.26-4.393-3.628-5.592-4.727-3.4-3.117-6.039-3.363-10.852-4.394-.415-.09-7.19-1.732-7.19-1.732s-1.505-1.106-3.308-1.752c-1.421-.51-3.179-.606-3.482-.51-9.514 2.99-8.454 11.371-15.75 17.586-7.499 6.389-16.139 12.984-25.74 15.808-4.69 1.38-6.5-1.163-7.094-5.472-.538-3.907.016-7.296 1.42-10.944.529-1.377 3.154-6.07 4.325-6.07l-.409-3.834s-2.467-.206-4.902.862c-2.894 1.27-5.995 3.894-8.387 4.607-8.27 2.463-22.539 4.481-29.798 9.2-3.79 2.463-4.163 2.356-7.003 5.877-3.335 4.135-5.468 17.276-5.468 17.276l-6.12 16.67s-8.119 6.876-8.721 11.06c-1.175 8.156 4.778 17.833 5.478 26.231.601 7.211 1.42 10.8 3.222 17.777.937 3.634 4.054 13.363 6.077 16.542z" fill="#FFF"/>
        <path d="M118.148 197.566s-.978 3.659 1.234 4.424c.114.04 5.45 1.284 11.443 1.233 5.995-.052 7.45-.876 12.534-1.438 3.004-.333 5.743-.495 8.353-1.539.921-.369 2.445-2.556 1.703-3.617-.91-1.298-5.829-1.615-5.829-1.615s9.585-1.409 9.736-3.598c.098-1.42-.292-3.38-.292-3.38s2.521-2.53 2.495-4.19c-.025-1.426-2.07-3.424-2.07-3.424s1.44-.757 1.703-1.871c.636-2.725.627-3.497-.639-4.51-1.457-1.164-4.106-1.086-6.888-1.442a229.407 229.407 0 0 1-7.788-1.154s-12.124 13.359-16.037 17.23c-2.071 2.047-9.658 8.891-9.658 8.891M24.276 155.56s-1.216-2.957-2.121-6.57c-.654-2.602-.926-5.28-2.077-9.004-.376-1.218-.777-2.877-1.896-3.487-1.09-.594-1.742.616-2.166 1.252-1.854 2.78-.79 7.865-2.405 10.801-.44.798-1.117 2.438-3.148 4.164-2.86 2.43-6.333 5.118-7.83 8.004-1.322 2.552-1.351 6.026-1.263 8.947.09 3.001-1.366 6.637-.421 10.067.504 1.824 1.734 3.972 3.022 5.318 1.063 1.11 3.547 4.546 4.9 5.448 1.313.876 1.93.88 1.93.88l.509-12.323s-2.264-1.782-3.927-4.578c-.905-1.522-1.847-4.487-1.66-5.003.244-.673.019-2.686.311-4.183.56-2.866 1.758-5.645 2.91-6.161 2.383-1.067 5.89-2.977 7.545-3.369 1.655-.392 5.045-.338 5.045-.338l2.742.136M75.765 103.67s-4.103 2.102-5.38 10.763c-.402 2.73-.617 8.874.97 11.45 1.54 2.503 3.197 1.578 5.898.924 1.712-.415 5.092-3.569 6.568-4.412 5.042-2.883 10.701-4.424 15.339-7.901 2.472-1.854 5.292-6.174 7.542-8.311 3.003-2.853 10.26-10.21 10.26-10.21l1.13-8.106s2.558-6.146 3.282-8.465c.1-.319 1.899-8.157 1.899-8.157s2.422-.185 3.027-.924c2.055-2.512 2.634-4.15 3.488-7.284.717-2.63.125-5.549-1.198-6.917-.801-.827-2.907-.368-2.907-.368s-.052-12.837-1.862-18.267c-1.657-4.97-4.95-12.16-9.585-14.268-3.549-1.613-12.12-2.522-15.946-1.826-2.838.516-4.65 2.395-7.06 3.801-4.737 2.764-10.839 6.031-13.527 10.96-2.372 4.349-1.587 10.636-4.04 14.931-.773 1.352-2.34 1.75-3.849 2-.787.132-3.18.257-3.745 3.335-.271 1.482.336 7.307 2.051 10.185 1.849 3.1 4.824 3.205 4.824 3.205s1.95 11.75 2.463 18.008c.513 6.259.358 15.853.358 15.853" fill="#FFF5F3"/>
        <path d="M69.223 53.231s-3.065-21.54-1.923-28.963c1.037-6.747.767-7.229 6.069-11.536C76.159 10.465 88.093 1.85 91.455.954c5.51-1.469 11.898 1.923 11.898 1.923s1.915 1.452 3.566 2.058c2.22.815 6.67-.934 7.73-.616 4.905 1.472 8.532 4.086 10.395 7.391 1.01 1.791 2.521 6.22 3.733 8.617 1.025 2.027 1.818 2.055 2.095 3.435.912 4.561.874 11.972-.3 16.43-.88 3.342-2.885 14.722-2.885 14.722s-.66 2.282-2.102.66c-1.442-1.621-.901-19.408-.901-19.408l-4.207-1.622s-2.114-5.517-4.25-7.325c-2.977-2.52-6.944-.056-11.793-1.268-1.18-.295-1.66-2.318-3.697-3.136-1.717-.69-3.625-.066-4.655.192-2.672.667-5.829 4.798-8.777 7.34-4.044 3.488-8.228 4.858-8.228 4.858s-.505 2.45-1.212 4.563c-.86 2.566-2.018 5.032-2.935 7.094-.903 2.033 0 6.91-1.441 7.81-.527.33-4.266-1.44-4.266-1.44" fill="#BED7F4"/>
        <path d="M86.169 181.83a.59.59 0 0 1-.461-.223c-7.076-8.866-14.897-9.6-19.57-10.04a72.229 72.229 0 0 1-1.274-.126c-1.904-.21-3.841-.369-5.716-.522-4.74-.386-9.642-.786-14.404-2.084-6.454-1.76-8.332-2.722-12.868-5.043-.943-.481-2-1.024-3.24-1.642a.592.592 0 0 1 .528-1.057c1.243.623 2.303 1.164 3.248 1.648 4.46 2.283 6.306 3.229 12.642 4.957 4.657 1.27 9.503 1.665 14.19 2.045 1.883.155 3.83.314 5.75.526.39.044.809.082 1.254.124 4.86.457 12.993 1.22 20.381 10.478a.588.588 0 0 1-.46.958M8.245 190.137a.575.575 0 0 1-.28-.072c-2.524-1.37-3.205-2.726-3.806-3.923-.14-.277-.276-.55-.437-.818-.38-.631-.847-1.235-1.3-1.816-1.051-1.356-2.138-2.755-2.36-4.741-.198-1.786.112-3.53.412-5.212.174-.977.354-1.986.424-2.97.063-.878.036-1.824.007-2.828-.07-2.452-.144-4.99 1.06-7.096.961-1.682 2.311-3.481 3.522-4.693.902-.902 1.9-1.667 2.863-2.405 1.516-1.16 2.947-2.256 3.995-3.827 1.461-2.193 1.892-5.242 2.272-7.934l.128-.917c.215-1.608.483-3.608 2.168-4.449.715-.357 1.293-.244 1.652-.086 1.273.562 1.822 2.499 2.117 3.54l.031.11c.464 1.626.76 3.303 1.046 4.926.23 1.302.467 2.648.787 3.929.196.781.535 1.552.895 2.366.58 1.317 1.179 2.677 1.179 4.173a.59.59 0 1 1-1.18 0c0-1.248-.523-2.437-1.079-3.697-.363-.824-.739-1.676-.96-2.558-.33-1.32-.57-2.687-.803-4.008-.281-1.593-.571-3.24-1.02-4.806l-.03-.113c-.19-.67-.693-2.445-1.46-2.784-.12-.051-.318-.103-.648.063-1.126.563-1.339 2.15-1.527 3.55l-.129.926c-.397 2.816-.848 6.008-2.459 8.423-1.155 1.733-2.732 2.942-4.258 4.11-.933.715-1.899 1.454-2.746 2.301-1.142 1.144-2.42 2.847-3.333 4.447-1.038 1.818-.97 4.185-.904 6.475.03 1.034.057 2.009-.01 2.946-.074 1.047-.26 2.087-.439 3.093-.298 1.674-.58 3.257-.4 4.873.184 1.657 1.124 2.867 2.119 4.148.473.61.963 1.24 1.38 1.935.175.292.326.59.478.894.575 1.143 1.117 2.224 3.315 3.416a.589.589 0 0 1-.282 1.11" fill="#31326F"/>
        <path d="M89.605 217.021c-3.078 0-5.662-.71-8.024-1.36l-.964-.263c-1.243-.334-2.536-.617-3.786-.89-1.763-.387-3.585-.786-5.33-1.337-2.167-.684-4.466-1.155-6.69-1.61-1.71-.351-3.48-.713-5.186-1.171-7.086-1.903-13.608-5.166-18.498-7.796-6.046-3.25-11.451-7.892-16.68-12.38l-1.035-.89a.59.59 0 0 1 .768-.896l1.036.891c5.18 4.449 10.537 9.048 16.47 12.237 4.834 2.6 11.276 5.823 18.245 7.694 1.671.45 3.423.809 5.117 1.155 2.253.463 4.582.939 6.807 1.642 1.695.535 3.49.93 5.228 1.308 1.264.277 2.57.564 3.84.904l.97.266c3.376.929 6.865 1.888 11.596.915 3.466-.71 6.84-3.735 10.413-6.94 1.737-1.557 3.533-3.167 5.438-4.604 6.4-4.837 22.337-18.69 31.934-30.312 8.222-9.956 13.05-21.937 13.936-24.236a.594.594 0 0 1 .763-.34.591.591 0 0 1 .338.762c-.897 2.33-5.788 14.468-14.127 24.565-9.658 11.696-25.694 25.636-32.133 30.501-1.866 1.41-3.643 3.001-5.362 4.544-3.695 3.311-7.185 6.44-10.963 7.217-1.472.302-2.84.424-4.12.424M131.04 203.712c-2.014 0-4.531-.317-6.976-.625-2.034-.256-3.954-.499-5.352-.524a.589.589 0 0 1 .01-1.177h.01c1.462.024 3.413.271 5.48.531 2.726.344 5.542.696 7.56.598 3.662-.18 7.022-.74 10.154-1.3 1.4-.25 2.76-.418 4.075-.58 1.744-.215 3.39-.417 4.604-.771 1.372-.403 2.202-.644 2.25-2.481.019-.733-2.18-.966-3.787-1.138-1.89-.2-3.524-.375-4.22-1.204a.588.588 0 1 1 .903-.757c.39.464 2.082.644 3.443.79 2.403.255 4.888.52 4.84 2.34-.07 2.696-1.68 3.167-3.1 3.582-1.304.38-2.998.588-4.79.81-1.297.16-2.641.325-4.012.57-3.168.568-6.572 1.133-10.302 1.317-.252.013-.516.02-.79.02" fill="#31326F"/>
        <path d="M146.839 195.788a.588.588 0 0 1-.476-.935c.558-.77 2.22-1.036 4.018-1.26.231-.028.424-.051.562-.074a18.767 18.767 0 0 1 1.615-.172c.989-.077 1.843-.143 2.83-.593.762-.348 1.416-1.416 1.49-2.433.035-.5-.053-1.178-.68-1.581-1.334-.859-3.24-.868-5.083-.876-1.703-.01-3.462-.017-4.898-.675a.59.59 0 1 1 .49-1.072c1.206.55 2.764.558 4.414.568 2.01.01 4.093.019 5.716 1.063.856.55 1.3 1.52 1.218 2.657-.106 1.457-1.021 2.896-2.178 3.422-1.177.535-2.173.612-3.227.696-.478.036-.977.074-1.52.16-.149.023-.357.052-.604.08-1.927.241-3.007.503-3.21.78a.584.584 0 0 1-.477.245" fill="#31326F"/>
        <path d="M156.367 188.428a.59.59 0 0 1-.02-1.177c1.358-.046 1.964-1.176 2.16-1.66.49-1.2.312-2.586-.437-3.372-.585-.615-1.816-.682-2.805-.738l-.317-.019c-1.803-.11-5.735-.7-7.696-2.122a.588.588 0 1 1 .69-.954c1.432 1.038 4.716 1.753 7.08 1.9l.308.018c1.134.063 2.686.149 3.594 1.1 1.075 1.129 1.346 2.99.675 4.633-.59 1.449-1.793 2.343-3.211 2.391h-.021" fill="#31326F"/>
        <path d="M149.033 180.095a.59.59 0 0 1-.094-1.172c1.612-.256 3.665-.325 5.478-.386l1.059-.036c.325.004.6.24.611.566.014.325-.24.6-.565.611l-1.067.039c-1.776.057-3.79.124-5.328.37a.53.53 0 0 1-.094.008" fill="#31326F"/>
        <path d="M157.049 181.418a.589.589 0 0 1-.302-1.093c3.189-1.906 1.88-4.93 1.864-4.96-.77-1.418-3.187-1.802-4.495-1.806-.625-.002-6.165-.046-8.428-1.078a.59.59 0 0 1 .49-1.074c1.44.657 5.126.965 7.942.975 1.946.003 4.562.64 5.527 2.42.42.772 1.338 4.362-2.296 6.534a.594.594 0 0 1-.302.082M124.823 48.932h-.015a.589.589 0 0 1-.574-.604l.023-.796c.071-2.306.205-6.599-.264-10.502a.59.59 0 0 1 1.17-.14c.48 3.991.345 8.341.272 10.678l-.023.788a.59.59 0 0 1-.589.576M97.863 101.647c-.518 0-1.039-.021-1.566-.067-8.875-.754-18.165-9.852-21.61-21.162a.589.589 0 1 1 1.128-.343c3.258 10.696 12.299 19.626 20.582 20.33 11.882 1.011 21.331-10.39 24.546-22.173.874-3.208 2.374-9.556 2.594-16.021a.59.59 0 0 1 1.179.04c-.225 6.585-1.748 13.033-2.636 16.291-3.202 11.739-12.449 23.105-24.217 23.105" fill="#31326F"/>
        <path d="M124.536 71.764c-.28 0-.56-.047-.836-.143a.589.589 0 1 1 .385-1.114c.454.154.904.079 1.38-.239 2.073-1.385 3.65-6.463 3.824-9.352.129-2.09-.294-3.657-1.154-4.297-.545-.405-1.278-.44-2.178-.11a.59.59 0 1 1-.407-1.106c1.618-.595 2.682-.182 3.288.27 1.205.895 1.784 2.783 1.63 5.315-.19 3.133-1.848 8.59-4.349 10.26-.512.343-1.048.516-1.583.516M71.61 70.473c-1.668 0-3.033-1.317-3.847-2.783-1.802-3.244-2.742-7.577-2.397-11.039.184-1.833 1.083-3.243 2.407-3.773 1.055-.42 2.84-.469 5.364 1.7a.59.59 0 1 1-.769.894c-1.643-1.412-3.08-1.931-4.157-1.499-.894.358-1.534 1.43-1.67 2.795-.325 3.24.56 7.301 2.253 10.35.488.878 1.834 2.826 3.776 1.955a.59.59 0 1 1 .481 1.077 3.51 3.51 0 0 1-1.44.323" fill="#31326F"/>
        <path d="M71.37 62.547a.588.588 0 0 1-.448-.206c-.31-.36-.612-.726-.916-1.092-.233-.281-.466-.563-.703-.842a.59.59 0 0 1 .9-.762c.239.283.475.567.71.85.3.361.6.723.905 1.08a.589.589 0 0 1-.447.972M100.733 70.182a.59.59 0 0 1-.145-1.162c1.732-.44 2.88-1.816 2.794-3.344-.054-.959-.517-1.761-1.052-2.69-.535-.93-1.142-1.984-1.41-3.37-.478-2.457.07-5.497 1.335-7.393a.59.59 0 0 1 .98.654c-1.087 1.632-1.575 4.372-1.158 6.514.232 1.193.762 2.114 1.275 3.006.585 1.015 1.137 1.974 1.208 3.212.118 2.1-1.395 3.972-3.68 4.554a.583.583 0 0 1-.147.019M117.024 48.772a.586.586 0 0 1-.23-.046c-1.604-.678-4.126-.873-5.743-.443a.589.589 0 1 1-.302-1.14c1.895-.504 4.63-.295 6.505.497a.59.59 0 0 1-.23 1.132M91.92 47.88a.586.586 0 0 1-.28-.072c-1.433-.78-4.113-.852-5.853-.156a.589.589 0 1 1-.437-1.095c1.792-.717 4.922-.838 6.853.216a.59.59 0 0 1-.282 1.107M88.585 55.83c-1.338 0-2.787-.5-3.91-1.353a.59.59 0 0 1 .714-.939c.962.732 2.203 1.141 3.329 1.11.463-.015.887-.117 1.297-.215.769-.184 1.563-.374 2.436.063a.59.59 0 1 1-.527 1.055c-.468-.234-.903-.146-1.634.029-.446.107-.951.228-1.533.247a5.114 5.114 0 0 1-.172.003M113.692 56.807c-.348 0-.696-.033-1.034-.1a9.369 9.369 0 0 1-.874-.234c-.71-.217-1.325-.402-1.864-.133a.59.59 0 0 1-.528-1.055c.958-.48 1.901-.193 2.734.059.257.078.512.156.763.206 1.093.218 2.359-.038 3.15-.64a.59.59 0 0 1 .714.94c-.809.615-1.937.957-3.06.957M100.637 83.669c-3.195 0-6.684-.92-10.357-2.755a.59.59 0 1 1 .527-1.055c6.316 3.155 12.007 3.475 16.455.925a.589.589 0 1 1 .587 1.023c-2.166 1.242-4.59 1.862-7.212 1.862M116.732 96.564a.59.59 0 0 1-.587-.655c.264-2.347 1.354-8.962 1.4-9.242a.582.582 0 0 1 .678-.486.589.589 0 0 1 .485.678c-.01.068-1.13 6.865-1.391 9.181a.59.59 0 0 1-.585.524M76.76 119.675a.59.59 0 0 1-.588-.545c-.614-7.992-1.174-23.26-1.174-32.032a.59.59 0 1 1 1.18 0c0 8.749.557 23.973 1.17 31.942a.59.59 0 0 1-.543.633c-.015.002-.03.002-.045.002M20.013 139.946l-.032-.002a.59.59 0 0 1-.557-.62c.319-6.063 1.526-11.276 3.798-16.407 2.308-5.208 8.672-10.055 16.213-12.35 5.25-1.598 10.662-2.943 15.895-4.244l2.598-.646c2.378-.595 5.843-1.572 8.464-3.185.412-.252.814-.575 1.24-.917 1.347-1.081 3.023-2.428 5.718-1.77a.59.59 0 0 1-.28 1.146c-2.13-.523-3.378.482-4.7 1.544-.436.35-.886.71-1.36 1.002-2.76 1.698-6.342 2.71-8.796 3.324l-2.6.647c-5.218 1.297-10.615 2.638-15.835 4.227-7.228 2.2-13.304 6.792-15.479 11.7-2.212 4.993-3.388 10.076-3.7 15.991a.59.59 0 0 1-.587.56M29.18 229.998c-2.196 0-4.248-.25-5.891-.933-4.564-1.895-5.775-6.366-7.056-11.101-.344-1.266-.699-2.575-1.124-3.852-.102-.308-.227-.666-.368-1.075-1.858-5.368-6.21-17.939-3.864-33.79a.596.596 0 0 1 .67-.498.59.59 0 0 1 .497.67c-2.304 15.566 1.982 27.946 3.812 33.234.143.411.268.774.372 1.088.436 1.305.795 2.632 1.143 3.915 1.256 4.64 2.341 8.646 6.37 10.321 3.953 1.638 10.786.522 15.773-.292l1.031-.169c10.025-1.615 31.152-7.711 41.52-12.521a.589.589 0 1 1 .495 1.068c-10.446 4.848-31.73 10.989-41.827 12.618l-1.028.168c-3.152.514-7.02 1.147-10.524 1.149M6.058 180.523a.588.588 0 0 1-.446-.975c.305-.351.737-1.158 1.118-1.871.398-.744.774-1.447 1.103-1.853a.59.59 0 1 1 .916.744c-.257.317-.625 1.004-.98 1.667-.45.84-.874 1.633-1.264 2.086a.591.591 0 0 1-.447.202M154.245 172.758a.587.587 0 0 1-.526-.855c.589-1.179.37-2.827.078-4.285-.348-1.738-.126-4.013.66-6.762.803-2.806 2.221-8.111 2.842-11.216.104-.52.22-1.07.343-1.651 1.254-5.95 3.148-14.94-.568-26.307-4.152-12.705-9.625-17.949-16.565-21.914-3.563-2.036-6.624-2.604-10.168-3.262-1.507-.28-3.063-.57-4.753-.992-.603-.15-1.174-.56-1.778-.994-1.131-.811-2.3-1.652-3.938-1.198a.59.59 0 1 1-.315-1.136c2.182-.605 3.776.541 4.94 1.376.51.366.992.711 1.377.808 1.655.413 3.194.7 4.681.976 3.498.65 6.802 1.263 10.54 3.399 7.176 4.1 12.83 9.507 17.101 22.57 3.814 11.669 1.881 20.845.6 26.916-.122.578-.237 1.124-.34 1.64-.627 3.14-2.057 8.485-2.866 11.31-.732 2.566-.948 4.653-.636 6.205.33 1.654.57 3.547-.182 5.047a.587.587 0 0 1-.527.325M147.047 222.045c.07-2.393.143-6.867.344-9.272.274-3.293.84-6.602 1.384-9.803l.342-2.016a.59.59 0 0 0-1.164-.194l-.34 2.012c-.55 3.225-1.118 6.559-1.398 9.904-.202 2.435-.275 6.926-.346 9.335M49.021 166.97a.59.59 0 0 1-.59-.591c0-9.775-.319-18.249-.949-25.186-.326-3.59-1.817-9.546-4.036-13.983a.59.59 0 1 1 1.055-.527c2.39 4.781 3.83 10.816 4.156 14.402.633 6.974.954 15.483.954 25.294a.59.59 0 0 1-.59.59" fill="#31326F"/>
        <path d="M78.93 171.447a.595.595 0 0 1-.548-.809c.829-2.07 3.172-3.229 5.241-4.251.971-.48 1.889-.933 2.58-1.436 3.177-2.311 5.72-6.123 7.762-9.186 5.636-8.453 9.793-15.928 12.71-22.856 2.38-5.65 11.24-21.306 23.503-25.829 5.279-1.946 10.557-1.623 15.691.957a.59.59 0 1 1-.53 1.054c-4.83-2.428-9.795-2.733-14.751-.904-11.871 4.377-20.502 19.66-22.826 25.18-2.946 6.996-7.139 14.537-12.816 23.054-2.095 3.14-4.702 7.048-8.05 9.484-.771.562-1.733 1.036-2.75 1.539-1.971.975-4.008 1.98-4.669 3.632a.592.592 0 0 1-.547.37M74.552 128.306c-2.819 0-4.084-2.258-5.021-5.613-1.176-4.206.475-15.633 5.728-19.604a.59.59 0 0 1 .711.94c-4.713 3.564-6.421 14.348-5.304 18.345 1.163 4.162 2.45 5.27 5.29 4.557 1.249-.31 2.33-1.202 3.377-2.066.362-.296.72-.593 1.08-.862 1.095-.822 2.267-1.468 3.471-2.11 1.696-.905 3.42-1.761 5.087-2.587 3.026-1.503 6.156-3.055 9.124-4.911.96-.599 1.824-1.494 2.66-2.36.232-.241.463-.48.692-.71 1.694-1.694 3.258-3.575 4.772-5.394.995-1.197 2.025-2.435 3.087-3.616 1.967-2.184 5.722-6.089 8.765-7.69a.589.589 0 1 1 .55 1.043c-2.881 1.517-6.524 5.31-8.439 7.436-1.046 1.164-2.068 2.393-3.057 3.58-1.53 1.84-3.113 3.743-4.844 5.476-.225.224-.45.458-.678.694-.885.917-1.8 1.866-2.883 2.54-3.017 1.887-6.173 3.453-9.225 4.967-1.66.824-3.375 1.675-5.056 2.571-1.161.621-2.29 1.243-3.317 2.013-.348.26-.691.543-1.039.83-1.147.946-2.334 1.925-3.84 2.301a7 7 0 0 1-1.691.23M118.685 203.796a.589.589 0 0 1-.527-.325c-.865-1.728-1.216-4.597-.31-6.41.145-.29.499-.409.791-.262.291.146.41.5.264.79-.709 1.417-.412 3.911.31 5.355a.588.588 0 0 1-.528.852" fill="#31326F"/>
        <path d="M105.327 211.481c-.792 0-1.698-.128-2.75-.432a.588.588 0 1 1 .329-1.132c3.726 1.077 5.129-.254 6.615-1.663.697-.661 1.418-1.346 2.365-1.724 1.885-.753 3.184-.952 4.33-1.13.535-.082 1.04-.16 1.551-.287 1.3-.325 2.778-1.147 3.144-2.246a.59.59 0 0 1 1.12.373c-.543 1.627-2.411 2.625-3.978 3.017-.564.141-1.095.221-1.657.31-1.137.175-2.312.355-4.072 1.058-.737.295-1.347.872-1.991 1.484-1.144 1.086-2.501 2.372-5.006 2.372M21.436 187.184a.587.587 0 0 1-.435-.193c-2.877-3.157-5.598-5.024-7.998-6.672-2.18-1.497-4.063-2.79-5.411-4.644-2.898-3.984-3.102-9.715-.52-14.601 2.09-3.955 5.714-4.806 7.88-5.314.566-.132 1.055-.247 1.366-.38 3.168-1.358 8.638-1.515 16.701 5.457a.59.59 0 0 1-.772.893c-7.601-6.573-12.606-6.492-15.464-5.267-.406.174-.942.3-1.562.445-2.097.492-5.267 1.235-7.107 4.718-2.374 4.49-2.204 9.733.432 13.357 1.228 1.69 3.034 2.93 5.125 4.365 2.453 1.682 5.233 3.59 8.201 6.85a.588.588 0 0 1-.436.986M109.139 26.128a.589.589 0 0 1-.439-.983c.18-.202.401-.509.661-.866 1.137-1.566 2.884-3.954 5.098-3.82a.59.59 0 1 1-.057 1.176c-1.627-.085-3.099 1.977-4.087 3.337-.289.398-.537.736-.737.96a.587.587 0 0 1-.439.196M68.822 49.795a.59.59 0 0 1-.586-.533c-.092-.948-.248-2.226-.43-3.724-1.518-12.466-2.747-25.914 1.929-27.696a.59.59 0 1 1 .42 1.102c-4.205 1.602-2.161 18.386-1.178 26.451.183 1.51.34 2.798.433 3.754a.59.59 0 0 1-.588.646M132.818 25.243a.57.57 0 0 1-.114-.012c-3.351-.67-4.707-4.291-6.142-8.126-.933-2.493-1.899-5.07-3.448-6.905-5.14-6.088-10.883-6.184-13.488-4.762a.59.59 0 0 1-.565-1.036c2.944-1.607 9.357-1.59 14.954 5.037 1.681 1.99 2.682 4.666 3.651 7.253 1.318 3.518 2.56 6.841 5.27 7.383a.59.59 0 0 1-.118 1.168M68.271 14.824a8.7 8.7 0 0 1-1.919-.215.59.59 0 0 1 .26-1.15c4.59 1.035 8.685-2.396 13.02-6.029C82 5.443 84.451 3.39 86.98 2.165c8.903-4.307 15.45-1.518 18.61 2.529a.59.59 0 0 1-.929.725c-2.876-3.683-8.896-6.194-17.168-2.192-2.397 1.16-4.79 3.166-7.105 5.107-3.814 3.197-7.742 6.49-12.118 6.49M105.576 21.677a.59.59 0 0 1-.581-.496c-.892-5.551-2.82-7.803-7.112-8.31-5.491-.65-10.155 5.01-12.441 8.44a.589.589 0 1 1-.98-.655c4.204-6.31 9.012-9.493 13.559-8.955 5.622.663 7.32 4.194 8.138 9.293a.589.589 0 0 1-.583.683" fill="#31326F"/>
        <path d="M75.835 35.676c-.78 0-1.578-.075-2.398-.238a.59.59 0 1 1 .23-1.156c6.646 1.317 12.046-3.825 15.988-7.58 1.7-1.617 3.166-3.015 4.463-3.683 2.412-1.24 4.389-1.576 6.039-1.025 1.487.496 2.67 1.686 3.614 3.637a.59.59 0 0 1-1.061.514c-.799-1.65-1.756-2.642-2.927-3.033-1.334-.445-3.01-.132-5.124.955-1.148.591-2.557 1.934-4.19 3.49-3.663 3.488-8.526 8.12-14.634 8.12M124.06 36.8c-1.232 0-2.311-.55-3.13-1.161-1.263-.943-2.118-2.714-3.022-4.59-1.743-3.61-2.987-5.714-5.594-4.5a.59.59 0 0 1-.498-1.07c3.845-1.791 5.68 2.005 7.153 5.058.804 1.665 1.634 3.387 2.666 4.156 2.146 1.602 3.66.822 4.614.099.133-.102.222-.168.346-.208a.589.589 0 0 1 .448 1.086l-.08.06c-1.021.776-2.002 1.07-2.902 1.07M108.355 20.37a.59.59 0 0 1-.524-.859c1.603-3.129.98-7.044.26-10.106a.59.59 0 1 1 1.147-.27c.768 3.258 1.421 7.443-.358 10.914a.59.59 0 0 1-.525.32M127.852 55.523a.59.59 0 0 1-.58-.7c.907-4.744 3.663-19.18 3.057-23.418a.59.59 0 0 1 1.168-.167c.568 3.973-1.477 15.489-3.066 23.805a.59.59 0 0 1-.58.48" fill="#31326F"/>
        <path d="M132.935 33.425a.591.591 0 0 1-.56-.404c-.373-1.117-2.239-2.179-3.659-2.382a.59.59 0 0 1 .168-1.167c1.503.215 4.009 1.373 4.611 3.177a.591.591 0 0 1-.56.776M74.023 52.179a.59.59 0 0 1-.59-.59c0-4.177 1.381-6.738 2.6-8.997.907-1.685 1.691-3.138 1.662-4.933a.59.59 0 0 1 .58-.6.58.58 0 0 1 .6.58c.034 2.103-.86 3.759-1.805 5.512-1.152 2.137-2.457 4.558-2.457 8.438a.59.59 0 0 1-.59.59" fill="#31326F"/>
    </g>
</svg>
