<?xml version="1.0" encoding="UTF-8"?>
<svg width="59px" height="56px" viewBox="0 0 59 56" version="1.1" xmlns="http://www.w3.org/2000/svg" xmlns:xlink="http://www.w3.org/1999/xlink">
    <title>4419DBA3-9562-4835-8F36-C0BDC7CB35C0</title>
    <g id="Desktop" stroke="none" stroke-width="1" fill="none" fill-rule="evenodd">
        <g id="Landing-Page" transform="translate(-609.000000, -1576.000000)" fill="#3D57BC" fill-rule="nonzero">
            <g id="How-it-Works?" transform="translate(134.000000, 784.000000)">
                <g id="Programs" transform="translate(99.000000, 752.000000)">
                    <path d="M427.437406,96 C429.909227,96 431.787614,95.3427921 433.072569,94.0283762 C434.357523,92.7139604 435,90.8404274 435,88.4077772 L435,58.8334209 C435,56.4007707 434.357523,54.5321422 433.072569,53.2275355 C431.787614,51.9229287 429.909227,51.2706253 427.437406,51.2706253 L420.727536,51.271002 L420.72818,47.5627956 C420.72818,45.1497635 420.085702,43.2860396 418.800748,41.9716238 C417.515794,40.6572079 415.637406,40 413.165586,40 L383.562594,40 C381.090773,40 379.212386,40.6473988 377.927431,41.9421965 C376.642477,43.2369942 376,45.1105272 376,47.5627956 L376,77.1665791 C376,79.6384656 376.642477,81.5169031 377.927431,82.8018917 C379.212386,84.0868804 381.090773,84.7293747 383.562594,84.7293747 L390.271444,84.7302065 L390.27182,88.4077772 C390.27182,90.8796637 390.914298,92.7630058 392.199252,94.0578035 C393.484206,95.3526012 395.372402,96 397.86384,96 L427.437406,96 Z M390.271444,83.2878176 L383.650873,83.2878176 C381.61064,83.2878176 380.070657,82.7626555 379.030923,81.7130846 C377.991189,80.6635138 377.471322,79.1185847 377.471322,77.0782974 L377.471322,47.6510772 C377.471322,45.61079 377.991189,44.0707655 379.030923,43.0310037 C380.070657,41.9912419 381.61064,41.471361 383.650873,41.471361 L413.077307,41.471361 C415.039069,41.471361 416.559435,41.9912419 417.638404,43.0310037 C418.717373,44.0707655 419.256858,45.61079 419.256858,47.6510772 L419.256057,51.271002 L397.86384,51.2706253 C395.372402,51.2706253 393.484206,51.9131196 392.199252,53.1981083 C390.914298,54.4830969 390.27182,56.3615344 390.27182,58.8334209 L390.271444,83.2878176 Z M424.229925,68.1912769 C424.112219,68.1912769 424.043558,68.1422316 424.02394,68.0441408 C423.808146,66.6120161 423.592352,65.5820634 423.376559,64.9542827 C423.160765,64.326502 422.724273,63.8801892 422.067082,63.6153442 C421.409892,63.3504992 420.326018,63.0709406 418.815461,62.7766684 C418.65852,62.7374321 418.58005,62.6589595 418.58005,62.5412507 C418.58005,62.4235418 418.65852,62.3450692 418.815461,62.3058329 C419.933666,62.1096514 420.796841,61.9036609 421.404988,61.6878613 C422.013134,61.4720617 422.459435,61.1974076 422.74389,60.8638991 C423.028346,60.5303906 423.249044,60.0644596 423.405985,59.4661061 C423.562926,58.8677527 423.768911,58.0683132 424.02394,57.0677877 C424.063175,56.969697 424.131837,56.9206516 424.229925,56.9206516 C424.308396,56.9206516 424.367249,56.969697 424.406484,57.0677877 C424.739983,58.4018217 425.019534,59.3925381 425.245137,60.0399369 C425.47074,60.6873358 425.88271,61.1532668 426.481047,61.4377299 C427.079385,61.722193 428.124023,62.0115607 429.614963,62.3058329 C429.771904,62.3450692 429.850374,62.4235418 429.850374,62.5412507 C429.850374,62.6589595 429.771904,62.7374321 429.614963,62.7766684 C428.124023,63.0120862 427.045054,63.2671221 426.378055,63.5417761 C425.711056,63.8164302 425.264755,64.2774566 425.039152,64.9248555 C424.813549,65.5722543 424.60266,66.6120161 424.406484,68.0441408 C424.406484,68.1422316 424.347631,68.1912769 424.229925,68.1912769 Z M412.72419,88.8786127 C412.547631,88.8786127 412.415212,88.8344719 412.326933,88.7461902 C412.238653,88.6579086 412.184705,88.5352951 412.165087,88.37835 C411.910058,85.9064635 411.625603,83.8612717 411.311721,82.2427746 C410.997839,80.6242775 410.566251,79.3343843 410.016958,78.3730951 C409.467664,77.4118059 408.702577,76.6712209 407.721696,76.15134 C406.740815,75.6314591 405.45586,75.2243826 403.866833,74.9301104 C402.277805,74.6358382 400.286617,74.351375 397.893267,74.076721 C397.736326,74.076721 397.608811,74.0227711 397.510723,73.9148713 C397.412635,73.8069714 397.363591,73.684358 397.363591,73.547031 C397.363591,73.3900858 397.412635,73.2625679 397.510723,73.1644771 C397.608811,73.0663864 397.736326,73.017341 397.893267,73.017341 C400.286617,72.8211596 402.287614,72.5906463 403.896259,72.3258014 C405.504904,72.0609564 406.804572,71.6636889 407.795262,71.1339989 C408.785952,70.604309 409.560848,69.8490103 410.11995,68.868103 C410.679052,67.8871957 411.105736,66.5727798 411.4,64.9248555 C411.694264,63.2769312 411.949293,61.1974076 412.165087,58.6862848 C412.184705,58.5489578 412.238653,58.4361534 412.326933,58.3478718 C412.415212,58.2595901 412.547631,58.2154493 412.72419,58.2154493 C412.920366,58.2154493 413.067498,58.2595901 413.165586,58.3478718 C413.263674,58.4361534 413.322527,58.5489578 413.342145,58.6862848 C413.557938,61.1974076 413.812968,63.2769312 414.107232,64.9248555 C414.401496,66.5727798 414.82818,67.8871957 415.387282,68.868103 C415.946384,69.8490103 416.72128,70.604309 417.71197,71.1339989 C418.70266,71.6636889 420.002328,72.0609564 421.610973,72.3258014 C423.219618,72.5906463 425.220615,72.8211596 427.613965,73.017341 C427.770906,73.017341 427.898421,73.0663864 427.996509,73.1644771 C428.094597,73.2625679 428.143641,73.3900858 428.143641,73.547031 C428.143641,73.684358 428.094597,73.8069714 427.996509,73.9148713 C427.898421,74.0227711 427.770906,74.076721 427.613965,74.076721 C424.612469,74.3121387 422.224023,74.6211245 420.448628,75.0036784 C418.673234,75.3862323 417.319618,76.023822 416.387781,76.9164477 C415.455943,77.8090734 414.78404,79.1627255 414.37207,80.9774041 C413.9601,82.7920827 413.616791,85.2590646 413.342145,88.37835 C413.322527,88.5352951 413.263674,88.6579086 413.165586,88.7461902 C413.067498,88.8344719 412.920366,88.8786127 412.72419,88.8786127 Z"></path>
                </g>
            </g>
        </g>
    </g>
</svg>