<svg width="62" height="56" xmlns="http://www.w3.org/2000/svg">
    <path d="M14.491 56c.255 0 .481-.063.678-.189.196-.126.402-.266.618-.421l10.721-9.004h24.918c2.14 0 4.006-.436 5.596-1.307 1.59-.872 2.818-2.087 3.682-3.645.864-1.56 1.296-3.384 1.296-5.475V10.427c0-2.09-.432-3.92-1.296-5.49a9.02 9.02 0 0 0-3.682-3.644C55.432.43 53.566 0 51.426 0H10.574c-2.14 0-4.006.426-5.596 1.278a8.95 8.95 0 0 0-3.682 3.616C.432 6.453 0 8.297 0 10.427V35.96c0 2.13.432 3.97 1.296 5.518.864 1.55 2.091 2.755 3.682 3.616 1.59.862 3.456 1.293 5.596 1.293H13.4v8.365c0 .387.108.692.324.915.216.223.472.334.766.334zm.295-1.568V45.66c0-.252-.054-.436-.162-.552-.108-.116-.3-.174-.575-.174h-3.416c-2.769 0-4.988-.823-6.657-2.47-1.669-1.645-2.503-3.833-2.503-6.564V10.485c0-2.75.834-4.942 2.503-6.578 1.67-1.637 3.888-2.455 6.657-2.455h40.705c2.71 0 4.919.818 6.627 2.455 1.708 1.636 2.562 3.829 2.562 6.578V35.9c0 2.73-.854 4.919-2.562 6.565-1.708 1.646-3.917 2.469-6.627 2.469H26.832c-.373 0-.677.048-.913.145-.235.097-.52.29-.854.58l-10.28 8.773zM34.844 34.39c1.472 0 2.606-.387 3.402-1.162.795-.774 1.192-1.897 1.192-3.37V16.557c0-1.472-.392-2.595-1.178-3.37-.785-.774-1.924-1.161-3.416-1.161H19.322c-1.493 0-2.636.387-3.432 1.162-.795.774-1.193 1.897-1.193 3.369v13.303c0 1.472.393 2.595 1.179 3.37.785.774 1.934 1.161 3.446 1.161h15.522zm12.606-2.469c.393 0 .717-.135.972-.406.255-.272.383-.659.383-1.162v-14.29c0-.485-.128-.862-.383-1.134a1.277 1.277 0 0 0-.972-.406c-.255 0-.5.058-.736.174a4.653 4.653 0 0 0-.707.436l-5.066 3.95v8.22l5.066 3.98c.235.193.47.348.707.464.235.116.48.174.736.174z" fill="#3D57BC" fill-rule="nonzero"/>
</svg>
